<svg width="67" height="68" viewBox="0 0 67 68" fill="none" xmlns="http://www.w3.org/2000/svg">
<g clip-path="url(#clip0_1_376)">
<path d="M27.0134 11.1039C29.0653 9.86 32.2394 11.3754 33.5675 8.56442C33.0379 8.40109 32.5028 8.28625 31.9693 8.22143C27.3525 8.20861 22.6766 8.19025 18.0416 8.25972C17.2874 8.27301 16.234 8.51862 15.9896 9.05425C15.5268 10.0356 16.5253 10.7801 17.4331 11.3943C20.2506 13.3089 23.0541 15.2557 25.8791 17.2087C26.3752 15.4788 26.3752 15.4788 22.0222 11.6271C31.8394 12.7532 39.3435 21.7297 37.9738 30.8655C37.0335 30.5128 36.108 30.1363 35.1752 29.8221C32.4993 28.8275 29.7225 28.8468 27.417 29.8759C25.6649 30.6944 24.6151 32.028 24.8496 34.1624C25.0841 36.2967 26.6359 37.7314 28.5901 38.7125C32.7925 40.8787 36.6912 40.0893 38.9054 36.639C39.1844 36.2158 39.5308 35.8451 39.9552 35.3054C44.5167 39.3908 47.6994 44.0441 48.889 49.5436C50.6936 58.0573 44.8505 61.4151 39.0383 61.706C38.3162 61.7517 37.5729 61.6442 36.3844 61.5832C37.9393 62.9048 39.2698 63.0085 40.5573 63.0998C45.6442 63.4633 50.3462 60.1077 51.4439 55.3601C52.1524 52.4014 51.8224 49.1152 50.5036 45.9993C48.6704 41.3572 45.6161 37.1101 41.7051 33.7644C41.3034 33.4286 40.9294 33.0744 40.4123 32.6143C40.7545 28.3125 40.5237 23.9821 37.8573 19.6796C35.2456 15.4788 31.0621 13.4866 27.0134 11.1039ZM37.4779 33.4941C36.2442 37.6242 32.8127 38.9782 29.1942 36.8206C28.2635 36.2417 27.5277 35.3634 27.1367 34.3642C26.7311 33.0873 27.6791 32.3866 28.7704 31.9934C31.5972 30.9817 34.4173 31.6828 37.4779 33.4941Z" fill="#4F4F4F"/>
</g>
<defs>
<clipPath id="clip0_1_376">
<rect width="35.3076" height="59.3537" fill="white" transform="matrix(-0.710405 0.703793 0.703793 0.710405 25.0828 0)"/>
</clipPath>
</defs>
</svg>
