<svg width="41" height="41" viewBox="0 0 41 41" fill="none" xmlns="http://www.w3.org/2000/svg">
<path d="M14.7344 3.94788C14.342 4.076 13.6693 4.76467 13.5492 5.17307C13.4771 5.42131 13.4531 7.68752 13.4531 14.5903V23.6791L12.6363 24.1436C12.1799 24.3918 11.275 24.9764 10.6263 25.4328C9.97771 25.8893 9.41717 26.2656 9.38514 26.2656C9.3451 26.2656 9.13689 25.9934 8.90467 25.6651C8.46424 25.0324 8.23201 24.8883 7.88767 25.0485C7.7035 25.1365 2.51443 28.7401 1.62557 29.4047C0.888848 29.9412 0.712676 29.5969 4.61248 35.1703C8.12791 40.1832 8.14392 40.2073 8.58435 40.0871C8.87264 40.0151 15.1588 35.5787 15.2709 35.3785C15.415 35.1063 15.399 34.9862 15.1347 34.5698L14.8945 34.1854L15.2549 33.9612C16.3519 33.2645 17.8414 33.0803 19.7553 33.4006C21.2527 33.6569 22.558 33.6408 23.623 33.3686C24.5519 33.1283 37.5246 28.4198 38.0611 28.1235C38.8459 27.699 39.2463 27.0264 39.3023 26.0574C39.3344 25.4729 39.3103 25.3528 39.1181 24.9203C38.8939 24.4158 38.3013 23.7752 37.973 23.6711L37.7968 23.6151V14.5582C37.7968 7.67952 37.7728 5.42131 37.7008 5.17307C37.5726 4.73264 36.908 4.06799 36.4676 3.93987C36.0191 3.81174 15.1588 3.81174 14.7344 3.94788ZM22.4219 6.40627V7.68752H18.5781H14.7344V6.60647C14.7344 5.55745 14.7424 5.5094 14.9345 5.32522L15.1267 5.12502H18.7783H22.4219V6.40627ZM27.5469 7.8637V10.6024L26.714 9.78557C26.0013 9.08088 25.8492 8.96877 25.625 8.96877C25.4008 8.96877 25.2486 9.08088 24.5359 9.78557L23.7031 10.6024V7.8637V5.12502H25.625H27.5469V7.8637ZM36.3154 5.32522C36.5076 5.5094 36.5156 5.55745 36.5156 6.60647V7.68752H32.6719H28.8281V6.40627V5.12502H32.4717H36.1232L36.3154 5.32522ZM22.4219 10.6905C22.4219 12.4201 22.4219 12.4201 22.622 12.6123C22.7422 12.7405 22.9023 12.8125 23.0705 12.8125C23.2947 12.8125 23.4789 12.6684 24.4799 11.6754L25.625 10.5383L26.7701 11.6754C27.7711 12.6684 27.9552 12.8125 28.1795 12.8125C28.3476 12.8125 28.5078 12.7405 28.6279 12.6123C28.8281 12.4201 28.8281 12.4201 28.8281 10.6905V8.96877H32.6719H36.5156V16.1678V23.3668L36.2593 23.4229C36.1152 23.4549 35.4746 23.6791 34.834 23.9114L33.6728 24.3438H31.4066C29.2765 24.3438 29.1244 24.3358 28.9402 24.1916C28.6039 23.9274 28.0994 23.8072 24.8242 23.2307C20.492 22.4699 20.54 22.478 19.0986 22.478C17.6972 22.486 16.4801 22.6621 15.359 23.0145L14.7344 23.2067V16.0877V8.96877H18.5781H22.4219V10.6905ZM20.2197 23.7832C21.3008 23.8793 27.8351 25.0405 28.1154 25.1846C28.5959 25.4408 28.8842 26.0735 28.748 26.594C28.5799 27.2026 28.1074 27.5629 27.4748 27.5549C27.2746 27.5549 25.5929 27.2826 23.7431 26.9543C21.9013 26.618 20.3799 26.3617 20.3638 26.3698C20.3238 26.4178 20.1556 27.5549 20.1877 27.5869C20.2838 27.675 27.1705 28.8442 27.6029 28.8442C28.5158 28.8362 29.3246 28.3317 29.773 27.4908L30.0213 27.0264L33.3045 25.8332C36.1793 24.7922 36.6277 24.6481 36.94 24.6801C38.0211 24.8002 38.4295 26.1295 37.6207 26.8823C37.3965 27.0905 24.1115 31.9432 23.1826 32.1594C22.3178 32.3516 21.1166 32.3436 19.8914 32.1194C17.7693 31.751 16.0957 31.9832 14.5822 32.8721L14.1418 33.1364L12.1558 30.2936C11.0668 28.7321 10.1699 27.4268 10.1699 27.3867C10.1699 27.2906 12.356 25.7612 13.1168 25.3367C14.5822 24.4959 16.384 23.9354 18.0816 23.7832C19.0666 23.7031 19.3148 23.7031 20.2197 23.7832ZM10.8666 30.686C12.4441 32.9442 13.7334 34.834 13.7334 34.8901C13.7334 34.9381 12.8525 35.6028 11.7715 36.3635C10.6904 37.1162 9.52928 37.933 9.19295 38.1733L8.57635 38.6057L5.68553 34.4656C4.09197 32.1914 2.7867 30.2936 2.77869 30.2455C2.76268 30.1655 7.75154 26.61 7.90369 26.594C7.95174 26.586 9.28103 28.4358 10.8666 30.686Z" fill="#212121"/>
</svg>
