<svg width="39" height="39" viewBox="0 0 39 39" fill="none" xmlns="http://www.w3.org/2000/svg">
<path d="M25.289 1.53105C27.0562 1.98808 28.5263 3.19922 29.2956 4.83691C29.6993 5.69766 29.8745 6.45937 29.8745 7.38867C29.8745 8.27988 29.7603 8.93496 29.4708 9.65859C29.0062 10.8316 28.8157 11.0449 24.1616 15.7066C20.0331 19.8428 19.7513 20.1094 19.4999 20.1094C19.2562 20.1094 18.9743 19.8428 14.9829 15.859C12.6444 13.5281 10.5649 11.3953 10.3517 11.1211C9.23193 9.63574 8.85107 7.76191 9.29287 5.90332C9.44522 5.27871 10.0013 4.18945 10.4507 3.62578C11.6085 2.18613 13.3147 1.37109 15.1505 1.37109C16.7272 1.37871 18.0679 1.85859 19.1267 2.80313L19.4999 3.13828L19.8731 2.80313C20.5739 2.17851 21.5642 1.69102 22.5315 1.48535C23.278 1.32539 24.5882 1.34824 25.289 1.53105ZM22.6306 2.7041C21.8841 2.88691 21.0462 3.35918 20.353 4.00664C19.5456 4.75312 19.4542 4.75312 18.7001 4.05234C17.6337 3.06211 16.7272 2.66602 15.4247 2.6127C14.4497 2.56699 13.8251 2.68887 13.071 3.05449C10.961 4.08281 9.88701 6.45937 10.5116 8.7293C10.8392 9.94805 10.8315 9.94043 15.3562 14.4727L19.4999 18.624L23.6437 14.4727C26.7591 11.3496 27.8407 10.2146 28.0235 9.88711C29.3946 7.43437 28.511 4.41035 26.0431 3.12305C25.7231 2.95547 25.2585 2.77266 25.0071 2.71172C24.4206 2.56699 23.2323 2.56699 22.6306 2.7041Z" fill="#212121"/>
<path d="M21.1377 5.6748C21.3205 5.85 21.3281 5.8957 21.3281 6.89355V7.92188H22.3564C23.3543 7.92188 23.4 7.92949 23.5752 8.1123C23.7656 8.29512 23.7656 8.31035 23.7656 9.75C23.7656 11.1896 23.7656 11.2049 23.5752 11.3877C23.4 11.5705 23.3543 11.5781 22.3564 11.5781H21.3281V12.6064C21.3281 13.6043 21.3205 13.65 21.1377 13.8252C20.9549 14.0156 20.9396 14.0156 19.5 14.0156C18.0604 14.0156 18.0451 14.0156 17.8623 13.8252C17.6795 13.65 17.6719 13.6043 17.6719 12.6064V11.5781H16.6436C15.6457 11.5781 15.6 11.5705 15.4248 11.3877C15.2344 11.2049 15.2344 11.1896 15.2344 9.75C15.2344 8.31035 15.2344 8.29512 15.4248 8.1123C15.6 7.92949 15.6457 7.92188 16.6436 7.92188H17.6719V6.89355C17.6719 5.8957 17.6795 5.85 17.8623 5.6748C18.0451 5.48438 18.0604 5.48438 19.5 5.48438C20.9396 5.48438 20.9549 5.48438 21.1377 5.6748ZM18.8906 7.73145C18.8906 8.7293 18.883 8.775 18.7002 8.9502C18.525 9.13301 18.4793 9.14062 17.4814 9.14062H16.4531V9.75V10.3594H17.4814C18.4793 10.3594 18.525 10.367 18.7002 10.5498C18.883 10.725 18.8906 10.7707 18.8906 11.7686V12.7969H19.5H20.1094V11.7686C20.1094 10.7707 20.117 10.725 20.2998 10.5498C20.475 10.367 20.5207 10.3594 21.5186 10.3594H22.5469V9.75V9.14062H21.5186C20.5207 9.14062 20.475 9.13301 20.2998 8.9502C20.117 8.775 20.1094 8.7293 20.1094 7.73145V6.70312H19.5H18.8906V7.73145Z" fill="#212121"/>
<path d="M34.7419 8.5541C35.7093 8.91972 36.3034 9.68906 36.3872 10.6945C36.4253 11.1363 36.4482 11.1744 36.7985 11.4867C37.286 11.9209 37.5603 12.4998 37.606 13.1625C37.6364 13.6348 37.5298 14.0613 36.2196 18.9211C35.2294 22.6154 34.7419 24.2912 34.5972 24.5578C34.4296 24.8549 33.8202 25.4414 31.9997 27.0791C30.3925 28.5111 29.5622 29.3109 29.4556 29.5166C29.3261 29.768 29.288 29.9889 29.2651 30.7506C29.2347 31.5809 29.2499 31.6875 29.3566 31.6875C29.4251 31.6875 29.5698 31.7713 29.6689 31.8779L29.8593 32.0607V34.7344V37.408L29.6689 37.5908L29.486 37.7812H24.9843H20.4825L20.2997 37.5908L20.1093 37.408V34.7344V32.0607L20.2997 31.8779C20.3987 31.7713 20.5358 31.6875 20.5968 31.6875C20.6958 31.6875 20.711 31.2305 20.7339 28.3131C20.7644 25.0377 20.7644 24.9311 20.9396 24.4131C21.3052 23.2934 21.9983 22.2803 22.8134 21.648C23.1562 21.3814 28.2978 18.327 28.7396 18.1213C28.8995 18.0527 29.0899 17.55 30.2706 14.1451C31.0095 11.9971 31.6874 10.0775 31.7788 9.87187C32.1597 9.04922 32.9519 8.52363 33.8964 8.47793C34.2544 8.46269 34.5743 8.49316 34.7419 8.5541ZM33.4394 9.82617C33.2794 9.90996 33.0814 10.0699 32.9976 10.1842C32.9214 10.3061 32.3044 11.9895 31.6341 13.9395C30.9562 15.8895 30.3849 17.5348 30.3544 17.6109C30.3163 17.71 30.3849 17.7557 30.7048 17.8547C30.9257 17.9156 31.1161 17.9613 31.1237 17.9537C31.1314 17.9461 31.5427 16.7045 32.0302 15.2039C32.5177 13.7033 32.9747 12.3475 33.0585 12.1951C33.3708 11.5857 34.1782 11.0068 34.8562 10.9154C35.1989 10.8697 35.2065 10.8621 35.1608 10.6336C35.0618 10.1309 34.5286 9.67383 34.0335 9.67383C33.8735 9.67383 33.6069 9.74238 33.4394 9.82617ZM34.6581 12.2637C34.4982 12.3475 34.3001 12.5074 34.2163 12.6217C34.1401 12.7436 33.6298 14.1984 33.0966 15.859L32.1216 18.883L32.2968 19.2791C32.4415 19.6219 32.4644 19.7818 32.4339 20.2998C32.3958 21.0158 32.1444 21.5643 31.6798 21.968C31.2685 22.3184 27.6427 24.375 27.437 24.375C27.338 24.375 27.178 24.2912 27.079 24.1846C26.8353 23.9484 26.8276 23.5904 27.0562 23.3619C27.1552 23.2705 28.0007 22.7449 28.9452 22.2117C29.8898 21.6709 30.7429 21.1529 30.8343 21.0691C31.139 20.8025 31.2532 20.5055 31.2151 20.0713C31.1542 19.3553 30.6439 18.9135 29.9431 18.982C29.6536 19.0125 29.0747 19.3172 26.6601 20.7264C23.3694 22.6459 22.9886 22.9354 22.4554 23.9637C21.9603 24.9006 21.9374 25.1062 21.9374 28.5797V31.6875H24.9767H28.0159L28.0464 30.6744C28.0921 29.4937 28.2216 29.0596 28.7319 28.435C28.9148 28.2141 29.8669 27.3305 30.8495 26.4621C33.1728 24.4207 33.4317 24.1693 33.5917 23.8037C33.6679 23.6361 34.3382 21.2367 35.0771 18.4717C36.5091 13.1473 36.5167 13.0863 36.1968 12.6521C35.8083 12.1266 35.2218 11.9742 34.6581 12.2637ZM21.328 34.7344V36.5625H24.9843H28.6405V34.7344V32.9062H24.9843H21.328V34.7344Z" fill="#212121"/>
<path d="M5.78906 8.57695C6.24609 8.74453 6.72598 9.10254 6.97734 9.45293C7.20586 9.78809 7.35059 10.1689 8.91211 14.6631L10.0775 18.0146L12.1037 19.1953C15.2572 21.0234 15.8895 21.4119 16.3084 21.7547C17.093 22.3945 17.7023 23.3162 18.0604 24.4131C18.2355 24.9311 18.2355 25.0301 18.266 28.3131C18.2889 31.2381 18.3041 31.6875 18.4031 31.6875C18.4641 31.6875 18.6012 31.7713 18.7002 31.8779L18.8906 32.0607V34.7344V37.408L18.7002 37.5908L18.5174 37.7812H14.0156H9.51387L9.33105 37.5908L9.14062 37.408V34.7344V32.0607L9.33105 31.8779C9.43008 31.7713 9.57481 31.6875 9.64336 31.6875C9.75 31.6875 9.76523 31.5809 9.73477 30.7506C9.71191 29.9813 9.68145 29.768 9.54434 29.509C9.43008 29.2957 8.66074 28.5568 7.06113 27.1324C4.77598 25.0986 4.57031 24.893 4.31133 24.3902C4.23516 24.2455 3.55723 21.8309 2.80313 19.0201C1.56914 14.465 1.4168 13.8328 1.4168 13.292C1.40918 12.774 1.43965 12.6217 1.62246 12.2484C1.74434 11.9971 1.9957 11.6695 2.20137 11.4867C2.55176 11.1744 2.57461 11.1363 2.6127 10.6793C2.68887 9.81094 3.18398 9.08731 3.97617 8.67598C4.41035 8.44746 5.30918 8.40176 5.78906 8.57695ZM4.41797 9.84141C4.09805 10.0623 3.9 10.3365 3.83906 10.6336C3.79336 10.8621 3.80098 10.8697 4.14375 10.9154C4.85215 11.0145 5.62148 11.5553 5.93379 12.1799C6.01758 12.3398 6.48223 13.7033 6.96973 15.2039C7.45723 16.7045 7.86856 17.9461 7.87617 17.9537C7.88379 17.9613 8.07422 17.9156 8.29512 17.8547C8.61504 17.7557 8.68359 17.71 8.64551 17.6109C8.61504 17.5348 8.04375 15.9047 7.38105 13.9775C6.71074 12.0504 6.10137 10.3746 6.0252 10.2451C5.72051 9.71953 4.89785 9.51387 4.41797 9.84141ZM3.19922 12.2789C2.84883 12.5227 2.6584 12.7969 2.6127 13.1473C2.58223 13.3758 2.8793 14.5641 3.88477 18.3193C4.60078 21.0006 5.24063 23.3619 5.30918 23.5676C5.46914 24.0703 5.68242 24.2836 8.09707 26.424C9.3082 27.498 10.2756 28.4121 10.4203 28.6254C10.824 29.2195 10.9688 29.8061 10.9688 30.8191V31.6875H14.0156H17.0625V28.5797C17.0625 25.1063 17.0396 24.9006 16.5521 23.9637C16.0266 22.9506 15.6305 22.6459 12.3322 20.7264C9.14062 18.8602 9.01113 18.8068 8.42461 19.0811C7.67813 19.4391 7.54102 20.5131 8.16563 21.0691C8.25703 21.1529 9.11016 21.6709 10.0547 22.2117C10.9992 22.7525 11.8447 23.2705 11.9361 23.3619C12.1723 23.5904 12.1646 23.9484 11.9209 24.1846C11.8219 24.2912 11.6619 24.375 11.5629 24.375C11.2811 24.375 7.64004 22.2574 7.22871 21.8537C6.73359 21.3662 6.52793 20.7949 6.57363 20.0332C6.58887 19.698 6.66504 19.34 6.74121 19.1725L6.88594 18.8906L5.94141 15.9732C5.43106 14.3736 4.93594 12.9264 4.84453 12.7588C4.53223 12.1646 3.71719 11.9285 3.19922 12.2789ZM10.3594 34.7344V36.5625H14.0156H17.6719V34.7344V32.9062H14.0156H10.3594V34.7344Z" fill="#212121"/>
</svg>
