<svg width="24" height="24" viewBox="0 0 24 24" fill="none" xmlns="http://www.w3.org/2000/svg">
<g clip-path="url(#clip0_1_545)">
<path d="M21.8088 20.9126L16.6448 15.8316C18.0461 14.323 18.8258 12.3407 18.8278 10.2816C18.8098 8.06767 17.9132 5.9515 16.3351 4.39855C14.7571 2.8456 12.6268 1.98306 10.4128 2.00064C9.31652 1.9918 8.22923 2.19899 7.21302 2.61038C6.19681 3.02176 5.27159 3.62929 4.49017 4.39825C3.70876 5.16722 3.08647 6.08258 2.65882 7.09205C2.23118 8.10153 2.00657 9.18535 1.9978 10.2816C2.00657 11.3779 2.23118 12.4617 2.65882 13.4712C3.08647 14.4807 3.70876 15.3961 4.49017 16.165C5.27159 16.934 6.19681 17.5415 7.21302 17.9529C8.22923 18.3643 9.31652 18.5715 10.4128 18.5626C12.3384 18.5672 14.2079 17.915 15.7128 16.7136L20.8968 21.8136C21.019 21.9333 21.1833 22.0003 21.3543 22.0003C21.5253 22.0003 21.6896 21.9333 21.8118 21.8136C21.8716 21.7548 21.9191 21.6845 21.9514 21.6071C21.9837 21.5296 22.0002 21.4464 21.9999 21.3625C21.9996 21.2786 21.9826 21.1955 21.9498 21.1183C21.9169 21.041 21.869 20.9711 21.8088 20.9126ZM10.4088 17.2876C8.53616 17.3018 6.73454 16.5717 5.39998 15.2579C4.06541 13.9442 3.30713 12.1543 3.2918 10.2816C3.30686 8.4083 4.06544 6.61767 5.40069 5.30362C6.73593 3.98957 8.53847 3.25973 10.4118 3.27464C12.2851 3.25973 14.0877 3.98957 15.4229 5.30362C16.7582 6.61767 17.5167 8.4083 17.5318 10.2816C17.5165 12.1546 16.7579 13.9448 15.4229 15.2587C14.0879 16.5725 12.2858 17.3023 10.4128 17.2876H10.4088Z" fill="#828282"/>
</g>
<defs>
<clipPath id="clip0_1_545">
<rect width="24" height="24" fill="white" transform="matrix(-1 0 0 -1 24 24)"/>
</clipPath>
</defs>
</svg>
