<svg width="166" height="189" viewBox="0 0 166 189" fill="none" xmlns="http://www.w3.org/2000/svg">
<path id="Vector" d="M-50.8772 188.099L-5.30745 180.11C-0.639627 179.297 -0.976042 173.224 -5.71565 174.041L-40.8111 180.182C-27.737 165 -7.46312 154.492 11.6456 144.883C36.0619 132.719 60.9083 121.053 88.0273 113.162L90.3266 112.509C89.2036 114.157 88.1863 115.849 87.279 117.579C83.859 124.081 82.3961 131.273 86.4283 137.625C90.4605 143.978 101.206 146.157 109.599 146.061C127.174 145.817 149.671 136.742 157.074 122.996C158.765 120.244 159.451 117.172 159.05 114.156C158.649 111.139 157.177 108.307 154.814 106.003C149.88 101.792 142.262 100.545 135.313 100.134C126.125 99.6671 116.866 100.29 107.823 101.983C111.661 97.9435 115.687 94.0091 119.606 90.1111C134.44 75.3674 149.093 60.6066 158.399 43.0106C163.169 34.5449 165.582 25.3697 165.461 16.1574C165.085 10.5554 163.436 3.19247 156.359 0.884091C151.937 -0.547705 148.52 4.92843 153.122 6.34815C157.723 7.76788 157.798 12.6282 158.123 15.8596C158.466 21.6595 157.476 27.4908 155.206 33.0551C150.54 44.6373 143.536 55.5515 134.487 65.3405C126.14 74.6947 116.682 83.6253 107.742 92.7264C104.03 96.4931 100.182 100.386 96.6688 104.433C90.6745 105.891 84.7338 107.61 78.9785 109.403C52.9498 117.426 28.9405 129.212 5.22431 141.065C-11.5167 149.43 -28.3743 158.741 -41.212 171.006C-37.8883 163.074 -34.6741 155.12 -32.0062 147.086C-30.786 143.253 -38.0694 142.16 -39.2934 145.935C-43.5037 158.909 -49.2807 171.637 -54.4796 184.384C-54.6128 184.835 -54.6208 185.301 -54.5029 185.749C-54.3849 186.197 -54.1441 186.615 -53.7982 186.971C-53.4523 187.328 -53.0102 187.615 -52.5046 187.81C-51.999 188.005 -51.4428 188.104 -50.8772 188.099ZM141.069 106.927C148.362 108.166 152.673 111.686 151.292 117.963C149.613 125.696 140.068 131.174 132.194 134.694C125.072 137.854 117.207 139.676 109.192 140.022C101.999 140.271 92.8613 137.867 91.5186 131.304C90.315 125.201 94.2733 118.662 98.1802 113.505C99.1046 112.241 100.101 110.972 101.135 109.73C114.19 106.595 128.121 104.691 141.069 106.927Z" fill="#4F4F4F"/>
</svg>
