<svg width="230" height="97" viewBox="0 0 230 97" fill="none" xmlns="http://www.w3.org/2000/svg">
<path d="M338.887 0.129837L272.986 15.8138C268.309 16.9454 270.341 21.4944 275.133 20.3402L329.763 7.32682C309.086 20.1516 288.04 32.7727 266.622 45.1901C252.898 53.1113 238.982 61.0325 224.452 68.3426C214.14 73.5932 203.597 79.5228 189.95 79.8171C169.286 80.2697 159.28 67.8221 151.881 58.543C143.984 48.8112 137.275 38.74 128.151 29.3477C120.484 21.3586 110.248 13.5053 95.2203 10.02C78.3139 6.1952 59.414 11.31 45.958 17.2849C7.88988 34.1004 -12.4668 69.7005 8.27324 95.7726C10.4584 98.5337 17.3206 96.1347 15.1355 93.5094C-3.38104 70.1532 15.1355 39.0795 46.8397 22.9429C59.414 16.4928 78.6973 10.6085 95.2586 15.1801C109.941 19.2312 118.836 28.7593 125.928 36.8842C134.247 46.3444 140.764 56.3477 148.93 65.8305C157.785 75.9243 170.206 85.045 191.483 84.5698C205.514 84.2755 216.248 78.6175 226.484 73.5706C240.86 66.5094 254.431 58.8598 267.888 51.1876C290.353 38.3175 312.371 25.1608 333.941 11.7174C331.641 21.932 329.328 32.1315 327.002 42.3158C326.312 45.3033 334.286 45.258 334.976 42.3158C337.966 29.0233 340.97 15.7384 343.985 2.46093C344.041 2.08346 343.936 1.70372 343.679 1.35654C343.422 1.00936 343.021 0.705867 342.514 0.473861C342.006 0.241855 341.408 0.0887592 340.774 0.028653C340.141 -0.0314532 339.492 0.00334621 338.887 0.129837Z" fill="#4F4F4F"/>
</svg>
