<svg width="28" height="29" viewBox="0 0 28 29" fill="none" xmlns="http://www.w3.org/2000/svg">
<g clip-path="url(#clip0_1_728)">
<path d="M3.37568 11.9879C3.31216 11.988 3.25022 11.9664 3.19858 11.9262C3.14694 11.886 3.1082 11.8292 3.08783 11.7639C3.06745 11.6985 3.06645 11.6278 3.08498 11.5618C3.10352 11.4957 3.14064 11.4377 3.19113 11.3958L6.07393 8.99242C6.13792 8.93923 6.21872 8.91583 6.29858 8.92739C6.37843 8.93895 6.45079 8.98451 6.49974 9.05405C6.54868 9.12359 6.57021 9.21142 6.55957 9.29821C6.54894 9.385 6.50702 9.46364 6.44304 9.51684L3.55245 11.9178C3.49956 11.962 3.43462 11.9858 3.3679 11.9855L3.37568 11.9879Z" fill="#FE5D26" stroke="#FE5D26" stroke-width="0.2"/>
<path d="M24.9886 26.5834H3.38925C3.34837 26.5843 3.30772 26.5765 3.26961 26.5604C3.2315 26.5443 3.19669 26.5202 3.16716 26.4894C3.13763 26.4587 3.11397 26.4219 3.09752 26.3812C3.08107 26.3405 3.07216 26.2967 3.07129 26.2523V12.3782C3.07608 12.2902 3.11161 12.2076 3.17061 12.1471C3.22961 12.0867 3.30762 12.053 3.3887 12.053C3.46977 12.053 3.54779 12.0867 3.60679 12.1471C3.66579 12.2076 3.70131 12.2902 3.70611 12.3782V25.9224H24.6707V12.3782C24.6754 12.2902 24.711 12.2076 24.77 12.1471C24.829 12.0867 24.907 12.053 24.9881 12.053C25.0691 12.053 25.1472 12.0867 25.2062 12.1471C25.2652 12.2076 25.3007 12.2902 25.3055 12.3782V26.2523C25.3037 26.3418 25.2694 26.4269 25.21 26.489C25.1506 26.551 25.071 26.585 24.9886 26.5834Z" fill="#FE5D26" stroke="#FE5D26" stroke-width="0.2"/>
<path d="M14.1897 20.2481C13.2249 20.2536 12.2859 19.9092 11.5215 19.2693L3.18327 12.2103C3.15103 12.1839 3.12413 12.1506 3.10422 12.1124C3.08432 12.0742 3.07185 12.032 3.06757 11.9884C3.0633 11.9448 3.06732 11.9007 3.07938 11.8588C3.09144 11.817 3.11128 11.7782 3.13768 11.7451C3.19316 11.6786 3.26934 11.6369 3.35149 11.628C3.43363 11.619 3.51591 11.6435 3.58239 11.6967L11.9206 18.7582C12.5698 19.2977 13.3642 19.5899 14.1814 19.5899C14.9986 19.5899 15.793 19.2977 16.4422 18.7582L24.7804 11.6967C24.8469 11.6435 24.9292 11.619 25.0113 11.628C25.0935 11.6369 25.1696 11.6786 25.2251 11.7451C25.2515 11.7782 25.2714 11.817 25.2834 11.8588C25.2955 11.9007 25.2995 11.9448 25.2952 11.9884C25.2909 12.032 25.2785 12.0742 25.2586 12.1124C25.2387 12.1506 25.2118 12.1839 25.1795 12.2103L16.8413 19.2693C16.0814 19.9054 15.1489 20.2496 14.1897 20.2481Z" fill="#FE5D26" stroke="#FE5D26" stroke-width="0.2"/>
<path d="M25.0029 26.5833C24.9348 26.5836 24.8686 26.5589 24.815 26.5133L16.8359 19.6983C16.8045 19.6715 16.7783 19.6382 16.7587 19.6003C16.7391 19.5625 16.7266 19.5209 16.7219 19.4778C16.7171 19.4347 16.7202 19.391 16.731 19.3492C16.7418 19.3074 16.7601 19.2684 16.7847 19.2343C16.8094 19.2002 16.84 19.1716 16.8748 19.1504C16.9096 19.1291 16.948 19.1155 16.9876 19.1104C17.0272 19.1052 17.0674 19.1086 17.1059 19.1203C17.1443 19.132 17.1803 19.1519 17.2116 19.1787L25.1897 25.9925C25.2395 26.0348 25.2759 26.093 25.2938 26.159C25.3116 26.2249 25.3101 26.2953 25.2894 26.3602C25.2687 26.4252 25.2299 26.4815 25.1783 26.5213C25.1267 26.561 25.065 26.5823 25.0018 26.5821L25.0029 26.5833Z" fill="#FE5D26" stroke="#FE5D26" stroke-width="0.2"/>
<path d="M3.37565 26.5834C3.31241 26.5835 3.25069 26.5623 3.19912 26.5225C3.14754 26.4827 3.1087 26.4264 3.088 26.3614C3.0673 26.2965 3.06579 26.2261 3.08368 26.1602C3.10157 26.0943 3.13795 26.036 3.18776 25.9937L11.1658 19.1787C11.2292 19.1245 11.3098 19.1 11.3898 19.1104C11.4699 19.1208 11.5429 19.1654 11.5927 19.2343C11.6425 19.3032 11.6651 19.3908 11.6555 19.4778C11.646 19.5648 11.605 19.6441 11.5416 19.6983L3.56354 26.5145C3.50977 26.5596 3.44361 26.5839 3.37565 26.5834Z" fill="#FE5D26" stroke="#FE5D26" stroke-width="0.2"/>
<path d="M25.0029 11.9879C24.9362 11.9883 24.8713 11.9645 24.8184 11.9202L21.9278 9.51928C21.8961 9.49294 21.8695 9.46008 21.8495 9.42256C21.8295 9.38505 21.8165 9.34362 21.8113 9.30065C21.806 9.25767 21.8086 9.21399 21.8188 9.1721C21.8291 9.13021 21.8469 9.09092 21.8711 9.05649C21.8953 9.02206 21.9256 8.99315 21.9601 8.97142C21.9946 8.94968 22.0327 8.93555 22.0723 8.92983C22.1118 8.92411 22.152 8.92691 22.1905 8.93806C22.2291 8.94922 22.2652 8.96853 22.2969 8.99487L25.1875 11.3958C25.238 11.4377 25.2751 11.4958 25.2936 11.5618C25.3122 11.6278 25.3112 11.6985 25.2908 11.7639C25.2704 11.8293 25.2317 11.886 25.18 11.9262C25.1284 11.9664 25.0664 11.988 25.0029 11.9879Z" fill="#FE5D26" stroke="#FE5D26" stroke-width="0.2"/>
<path d="M16.9702 5.3892C16.9035 5.3893 16.8386 5.36552 16.7856 5.32154L14.1885 3.16225L11.5904 5.3155C11.5264 5.36869 11.4456 5.39209 11.3657 5.38053C11.2859 5.36897 11.2135 5.32341 11.1645 5.25387C11.1156 5.18433 11.0941 5.0965 11.1047 5.00971C11.1153 4.92292 11.1573 4.84428 11.2212 4.79108L14.0007 2.47833C14.0536 2.43423 14.1185 2.41034 14.1852 2.41034C14.2519 2.41034 14.3168 2.43423 14.3698 2.47833L17.1492 4.79108C17.1997 4.83297 17.2368 4.89101 17.2553 4.95704C17.2738 5.02307 17.2729 5.09375 17.2525 5.15913C17.2321 5.22451 17.1934 5.2813 17.1417 5.32149C17.0901 5.36168 17.0281 5.38325 16.9646 5.38316L16.9702 5.3892Z" fill="#FE5D26" stroke="#FE5D26" stroke-width="0.2"/>
<path d="M22.0967 14.2185C22.0138 14.2211 21.9332 14.1878 21.8728 14.126C21.8123 14.0641 21.7769 13.9788 21.7743 13.8886V5.38919H6.60541V13.8886C6.60057 13.9781 6.56444 14.0623 6.5044 14.1238C6.44437 14.1854 6.36496 14.2196 6.28244 14.2196C6.19992 14.2196 6.12052 14.1854 6.06048 14.1238C6.00044 14.0623 5.96431 13.9781 5.95947 13.8886V5.05811C5.96209 4.96793 5.9975 4.88257 6.05794 4.82073C6.11838 4.75889 6.19891 4.72563 6.28188 4.72823H22.0967C22.1797 4.72563 22.2602 4.75889 22.3207 4.82073C22.3811 4.88257 22.4165 4.96793 22.4191 5.05811V13.8886C22.4165 13.9788 22.3811 14.0641 22.3207 14.126C22.2602 14.1878 22.1797 14.2211 22.0967 14.2185Z" fill="#FE5D26" stroke="#FE5D26" stroke-width="0.2"/>
<path d="M18.8991 8.43543H9.47692C9.39628 8.43543 9.31894 8.40062 9.26191 8.33864C9.20489 8.27666 9.17285 8.1926 9.17285 8.10495C9.17285 8.01731 9.20489 7.93325 9.26191 7.87127C9.31894 7.80929 9.39628 7.77448 9.47692 7.77448H18.8991C18.9798 7.77448 19.0571 7.80929 19.1141 7.87127C19.1712 7.93325 19.2032 8.01731 19.2032 8.10495C19.2032 8.1926 19.1712 8.27666 19.1141 8.33864C19.0571 8.40062 18.9798 8.43543 18.8991 8.43543Z" fill="#FE5D26" stroke="#FE5D26" stroke-width="0.2"/>
<path d="M18.8991 11.1179H9.47692C9.39628 11.1179 9.31894 11.0831 9.26191 11.0211C9.20489 10.9592 9.17285 10.8751 9.17285 10.7874C9.17285 10.6998 9.20489 10.6157 9.26191 10.5538C9.31894 10.4918 9.39628 10.457 9.47692 10.457H18.8991C18.9798 10.457 19.0571 10.4918 19.1141 10.5538C19.1712 10.6157 19.2032 10.6998 19.2032 10.7874C19.2032 10.8751 19.1712 10.9592 19.1141 11.0211C19.0571 11.0831 18.9798 11.1179 18.8991 11.1179Z" fill="#FE5D26" stroke="#FE5D26" stroke-width="0.2"/>
<path d="M18.8991 13.7932H9.47692C9.39628 13.7932 9.31894 13.7583 9.26191 13.6964C9.20489 13.6344 9.17285 13.5503 9.17285 13.4627C9.17285 13.375 9.20489 13.291 9.26191 13.229C9.31894 13.167 9.39628 13.1322 9.47692 13.1322H18.8991C18.9798 13.1322 19.0571 13.167 19.1141 13.229C19.1712 13.291 19.2032 13.375 19.2032 13.4627C19.2032 13.5503 19.1712 13.6344 19.1141 13.6964C19.0571 13.7583 18.9798 13.7932 18.8991 13.7932Z" fill="#FE5D26" stroke="#FE5D26" stroke-width="0.2"/>
</g>
<defs>
<clipPath id="clip0_1_728">
<rect width="26.6824" height="29" fill="white" transform="translate(0.847168)"/>
</clipPath>
</defs>
</svg>
