<svg width="24" height="23" viewBox="0 0 24 23" fill="none" xmlns="http://www.w3.org/2000/svg">
<path d="M8.45702 18.347C5.81516 16.1156 3.67287 13.3364 2.17359 10.1953C1.45267 8.77485 1.00233 7.22872 0.846285 5.63829C0.846285 5.5229 0.837202 5.4225 0.837202 5.31288C0.82095 4.76224 0.92341 4.21466 1.1374 3.70852C1.35139 3.20239 1.67172 2.74995 2.07595 2.38295C2.08288 2.37523 2.09092 2.36861 2.09979 2.36333C2.43004 2.07306 2.74463 1.76489 3.04219 1.44015C3.25451 1.21513 3.47592 0.985489 3.70187 0.765081C3.91551 0.52352 4.17692 0.330509 4.46899 0.198671C4.76107 0.0668335 5.07723 -0.000863067 5.39682 8.3063e-06C5.7164 0.000879679 6.0322 0.0702994 6.32358 0.203728C6.61495 0.337157 6.87534 0.53159 7.0877 0.774313L9.91831 3.65116C10.1523 3.86389 10.3407 4.1232 10.472 4.41302C10.6032 4.70284 10.6745 5.01698 10.6813 5.33595C10.6732 5.65712 10.6019 5.97338 10.4716 6.2661C10.3414 6.55882 10.1548 6.82208 9.92285 7.04037L8.23675 8.75401C8.32644 8.91211 8.40592 9.07482 8.482 9.22829C8.56743 9.40844 8.66179 9.58407 8.76472 9.7545C9.81879 11.4027 11.1295 12.8658 12.6456 14.0865C13.3446 14.6757 14.1173 15.1681 14.9437 15.5509C15.3445 15.1008 15.7635 14.6796 16.1733 14.2734C16.3198 14.1304 16.4651 13.9815 16.6116 13.8326C16.8281 13.5924 17.0895 13.3983 17.3805 13.2618C17.6716 13.1253 17.9865 13.049 18.3068 13.0375C18.6269 13.0482 18.9416 13.1239 19.2324 13.2603C19.5231 13.3966 19.7841 13.5909 19.9997 13.8315L21.4076 15.2543C21.5723 15.4216 21.7324 15.5797 21.897 15.7425C22.2172 16.0586 22.5465 16.3887 22.8439 16.7141C23.0677 16.9326 23.2466 17.194 23.3704 17.4831C23.4941 17.7723 23.5603 18.0836 23.5649 18.3989C23.5506 19.0423 23.2885 19.6543 22.8349 20.1033L21.0738 21.8931C20.4583 22.5329 19.6344 22.9226 18.7564 22.9894C17.4676 23.0536 16.1809 22.8261 14.9891 22.3235C12.6001 21.3956 10.3894 20.0497 8.45702 18.347ZM18.6576 21.8216C19.265 21.7751 19.8345 21.5042 20.2586 21.0599L22.0105 19.2794C22.2519 19.0501 22.3957 18.7342 22.4114 18.3989C22.4036 18.2346 22.3633 18.0735 22.2928 17.9254C22.2224 17.7773 22.1233 17.6452 22.0015 17.5369C21.7097 17.2161 21.4031 16.9149 21.0784 16.5895C20.9137 16.4268 20.7491 16.2594 20.5788 16.0921L19.1754 14.6658C19.0652 14.5352 18.9305 14.4282 18.7793 14.351C18.628 14.2737 18.4632 14.2277 18.2943 14.2157C18.1254 14.2277 17.9606 14.2737 17.8094 14.351C17.6581 14.4282 17.5235 14.5352 17.4132 14.6658C17.2668 14.8147 17.1169 14.9624 16.9704 15.1112C16.5276 15.5567 16.1086 15.9732 15.7078 16.4325L15.684 16.4568C15.556 16.6025 15.3864 16.7039 15.1988 16.7468C15.0113 16.7896 14.8153 16.7717 14.6383 16.6956C14.6246 16.6956 14.6144 16.6864 14.6008 16.6818C13.6303 16.2549 12.7249 15.6891 11.9121 15.0016C10.2945 13.7033 8.89748 12.144 7.7769 10.3857C7.65252 10.1812 7.53882 9.97007 7.43627 9.75335C7.35084 9.5732 7.25648 9.39758 7.15355 9.22714L7.12517 9.17406C7.05135 9.03171 7.0124 8.87337 7.01163 8.71247C7.01584 8.57797 7.04632 8.44565 7.10128 8.32323C7.15625 8.2008 7.23461 8.0907 7.33182 7.99932L9.09285 6.2072C9.21598 6.09643 9.31638 5.96203 9.38827 5.81173C9.46017 5.66143 9.50216 5.49817 9.51182 5.33134C9.50211 5.16867 9.45996 5.0097 9.38794 4.8641C9.31592 4.71849 9.21552 4.58928 9.09285 4.48433L6.2543 1.5994C6.14693 1.46461 6.01105 1.35616 5.85676 1.28209C5.70248 1.20802 5.53374 1.17025 5.36312 1.17158C5.19249 1.17291 5.02435 1.21331 4.8712 1.28977C4.71804 1.36624 4.58382 1.4768 4.4785 1.61325C4.26618 1.81404 4.06407 2.02522 3.85175 2.25024C3.52853 2.60163 3.18744 2.93558 2.82987 3.25073C2.54759 3.50808 2.32446 3.82539 2.17632 4.18017C2.02817 4.53495 1.95863 4.9185 1.97262 5.30364C1.97262 5.38558 1.97262 5.47097 1.98171 5.5529C2.12963 6.99332 2.54333 8.3925 3.20115 9.67719C4.62719 12.6679 6.6667 15.3136 9.18255 17.4365C11.0162 19.051 13.1114 20.3301 15.3751 21.2169C16.4117 21.6632 17.5329 21.8697 18.6576 21.8216Z" fill="#FE5D26"/>
</svg>
