<svg width="70" height="70" viewBox="0 0 70 70" fill="none" xmlns="http://www.w3.org/2000/svg">
<rect y="-0.000244141" width="70" height="70" rx="4" fill="#ECECEC"/>
<path d="M22.2783 20.2812L22.0988 20.4144V22.7712V25.128L22.2783 25.2611C22.4095 25.361 22.5614 25.401 22.803 25.401H23.1482L23.1206 26.4129C23.0998 27.325 23.0791 27.4648 22.9342 27.7311C22.6028 28.3503 22.3128 28.55 21.1944 28.9562C20.0415 29.3756 19.4133 29.9548 19.1233 30.8603C18.9921 31.2864 18.9921 31.4794 19.0059 39.9813L19.0266 48.6696L19.1854 49.0491C19.5375 49.8879 20.29 50.587 21.1461 50.8799C21.4982 50.9931 22.1057 50.9998 35.3885 50.9998H49.265L49.7275 50.7801C50.2522 50.5337 50.556 50.2341 50.8114 49.7015L50.9909 49.3353V43.7762V38.217L50.8114 37.8442C50.5767 37.3582 50.1487 36.952 49.6585 36.7323C49.334 36.5925 49.1338 36.5592 48.5263 36.5326L47.7807 36.4993V31.8523V27.2052L47.615 27.0188C47.4562 26.839 47.4148 26.8324 46.752 26.8124L46.0548 26.7858V26.0268C46.0548 25.3011 46.0478 25.2545 45.8822 25.1014C45.7372 24.9549 45.6543 24.9349 45.1918 24.9349H44.674V22.7046V20.4676L44.5014 20.3078C44.2736 20.0881 44.0182 20.0948 43.7696 20.3345L43.5694 20.5275V22.7312V24.9349H43.0861C42.6581 24.9349 42.5753 24.9549 42.4303 25.1014C42.2646 25.2545 42.2577 25.3011 42.2577 26.0268V26.7858L41.5604 26.8124C40.8977 26.8324 40.8562 26.839 40.6975 27.0188L40.5318 27.2052V31.8656V36.5193H39.2546H37.9774V33.9361C37.9774 32.4182 37.9429 31.2397 37.9014 31.06C37.8669 30.9002 37.7565 30.6206 37.6598 30.4408C37.2939 29.7351 36.8245 29.3623 35.8372 28.9894C34.8155 28.6033 34.6498 28.5101 34.3253 28.1572C33.9318 27.7178 33.8351 27.365 33.8351 26.2864V25.401H34.1803C34.4634 25.401 34.5669 25.3677 34.6981 25.2345L34.8707 25.0747V22.7712V20.4676L34.6981 20.3078L34.5324 20.1414H28.4986C22.4992 20.1414 22.4647 20.1414 22.2783 20.2812ZM33.7661 22.7712V24.3357H28.4848H23.2034V22.7712V21.2066H28.4848H33.7661V22.7712ZM32.7306 26.3463C32.7306 27.4182 32.8065 27.7711 33.1517 28.3903C33.5452 29.1159 34.1113 29.5087 35.4575 30.0014C36.4724 30.3676 36.8728 30.8869 36.8728 31.8389V32.2584H28.4779H20.076L20.1105 31.7058C20.1589 30.7404 20.4833 30.3742 21.6708 29.9282C22.6649 29.5554 22.9065 29.4222 23.3139 29.0361C24.0111 28.3636 24.239 27.6912 24.239 26.3197V25.401H28.4848H32.7306V26.3463ZM44.9502 26.3996V26.7991H44.1562H43.3623V26.3996V26.0001H44.1562H44.9502V26.3996ZM46.6761 28.823V29.7817L45.8753 29.8083C45.1297 29.8283 45.0675 29.8416 44.9433 29.9881C44.7707 30.1945 44.7776 30.5141 44.964 30.7071C45.102 30.8469 45.1642 30.8603 45.896 30.8603H46.6761V31.5593V32.2584H45.392C44.101 32.2584 43.9077 32.285 43.7282 32.518C43.5901 32.6911 43.6246 32.9841 43.811 33.1572C43.9767 33.3236 43.9836 33.3236 45.3299 33.3236H46.6761V34.0227V34.7217H45.9236C45.2746 34.7217 45.1504 34.7417 44.9916 34.8615C44.8535 34.9681 44.8121 35.0546 44.8121 35.2543C44.8121 35.4541 44.8535 35.5406 44.9916 35.6471C45.1504 35.767 45.2746 35.7869 45.9236 35.7869H46.6761V36.1531V36.5193H44.1562H41.6364V32.1918V27.8643H44.1562H46.6761V28.823ZM36.8728 34.9214V36.5126L31.3015 36.5326L25.7233 36.5526L25.3367 36.7257C24.8396 36.952 24.4116 37.3648 24.1768 37.8442L23.9973 38.217L23.9766 40.7269L23.9559 43.2436H22.0298H20.0967V38.2836V33.3236H28.4848H36.8728V34.9214ZM49.2512 37.7443C49.4031 37.8175 49.6033 37.9906 49.6999 38.1371L49.8863 38.4101L49.907 43.6364C49.9208 47.1516 49.907 48.9492 49.8518 49.109C49.7552 49.4485 49.5273 49.6948 49.2029 49.8413C48.9336 49.9612 48.4642 49.9678 37.5079 49.9678C27.394 49.9678 26.0685 49.9545 25.8475 49.8679C25.5023 49.7281 25.3505 49.5883 25.1986 49.2688C25.0743 49.0158 25.0674 48.7029 25.0674 43.7828C25.0674 38.6231 25.0674 38.5565 25.2124 38.2703C25.3712 37.9507 25.6059 37.7643 25.9649 37.6644C26.1237 37.6178 30.1762 37.5978 37.5977 37.6045C48.6506 37.6178 48.9957 37.6245 49.2512 37.7443ZM23.9766 46.8187C23.9973 49.2554 24.0042 49.342 24.1492 49.6549L24.308 49.9745L22.9411 49.9545C21.6846 49.9345 21.5603 49.9212 21.2911 49.7814C20.8561 49.5617 20.5593 49.2887 20.3315 48.8893L20.1312 48.5364L20.1105 46.4193L20.0898 44.3088H22.0229H23.9559L23.9766 46.8187Z" fill="#3A3A3C"/>
<path d="M27.9946 38.9825C26.2548 39.3287 25.5506 41.3594 26.7311 42.6111C27.2351 43.1371 27.7115 43.3434 28.4157 43.3434C28.8645 43.3368 29.044 43.3035 29.3477 43.1703C29.8241 42.9506 30.2591 42.5378 30.5007 42.0585C30.7354 41.5924 30.763 40.9399 30.5628 40.3807C30.3833 39.8813 29.7344 39.2488 29.2442 39.0957C28.7816 38.9559 28.3398 38.9159 27.9946 38.9825ZM29.0509 40.1943C29.8655 40.667 29.7344 41.8787 28.8299 42.2116C28.0498 42.5046 27.242 41.9519 27.2489 41.1463C27.2627 40.2342 28.2362 39.7216 29.0509 40.1943Z" fill="#3A3A3C"/>
<path d="M33.918 39.0092C32.5096 39.3487 31.7709 40.8734 32.413 42.1384C32.9308 43.1637 34.2977 43.6364 35.361 43.1637C36.1894 42.7975 36.6589 42.1583 36.721 41.3195C36.8315 39.8214 35.4093 38.6496 33.918 39.0092ZM34.7465 40.0478C35.6854 40.3008 35.934 41.3993 35.1953 42.0252C34.4634 42.6444 33.2829 42.0984 33.2829 41.1463C33.2829 40.6603 33.5935 40.2475 34.0906 40.0811C34.4151 39.9679 34.4289 39.9679 34.7465 40.0478Z" fill="#3A3A3C"/>
<path d="M40.0693 38.9825C39.6275 39.0691 39.2132 39.3021 38.8611 39.6616C37.7979 40.7402 38.1707 42.5312 39.5791 43.1437C39.9312 43.3035 40.1107 43.3368 40.5319 43.3368C40.9875 43.3434 41.1187 43.3101 41.5191 43.1237C42.0162 42.884 42.3614 42.5511 42.6169 42.0518C42.7411 41.8055 42.7756 41.6324 42.7756 41.1463C42.7756 40.5871 42.7618 40.5205 42.534 40.121C42.0576 39.2755 41.022 38.7961 40.0693 38.9825ZM41.098 40.1543C41.2016 40.2076 41.3672 40.3474 41.4639 40.4739C41.9403 41.0731 41.6779 41.9186 40.9323 42.2116C40.1936 42.4912 39.3582 41.9453 39.3582 41.1796C39.3582 40.2941 40.2833 39.7482 41.098 40.1543Z" fill="#3A3A3C"/>
<path d="M46.1307 38.9892C45.6475 39.0824 45.2539 39.3021 44.888 39.6883C44.0596 40.5604 44.0872 41.8654 44.9571 42.7043C45.4196 43.1504 45.896 43.3368 46.5726 43.3434C47.2768 43.3434 47.7532 43.1371 48.2572 42.6111C48.6714 42.1717 48.844 41.7256 48.8371 41.1131C48.8302 39.7815 47.4908 38.7295 46.1307 38.9892ZM47.1456 40.161C47.4218 40.2875 47.6013 40.5272 47.7048 40.9C47.981 41.8787 46.8004 42.671 45.9098 42.0918C45.0744 41.5458 45.3092 40.2742 46.2964 40.0411C46.545 39.9812 46.835 40.0278 47.1456 40.161Z" fill="#3A3A3C"/>
<path d="M27.974 44.242C26.9384 44.4484 26.1582 45.3605 26.1513 46.3725C26.1444 47.045 26.3239 47.4644 26.8279 47.9504C27.1938 48.3033 27.3181 48.3766 27.753 48.5031C28.1396 48.6229 28.3468 48.6429 28.6436 48.6096C29.4307 48.523 30.1349 48.0303 30.5008 47.3179C30.7355 46.8519 30.7631 46.1994 30.5629 45.6402C30.3834 45.1408 29.7345 44.5083 29.2443 44.3552C28.7748 44.2087 28.3399 44.1754 27.974 44.242ZM29.0855 45.4737C29.4238 45.6868 29.5826 45.993 29.5826 46.4058C29.5826 47.0583 29.0924 47.531 28.4227 47.531C27.7392 47.531 27.2559 47.0649 27.2559 46.4058C27.2559 45.4671 28.2708 44.9544 29.0855 45.4737Z" fill="#3A3A3C"/>
<path d="M33.9871 44.242C33.3105 44.3752 32.7029 44.8546 32.3716 45.5004C32.2404 45.7467 32.2128 45.9198 32.2128 46.4059C32.2128 46.9252 32.2404 47.0517 32.4061 47.3846C32.9377 48.4232 34.2909 48.9026 35.361 48.4232C35.8857 48.1902 36.2792 47.8373 36.507 47.3846C36.6727 47.0517 36.7003 46.9252 36.7003 46.4059C36.7003 45.7334 36.583 45.4138 36.148 44.9211C35.6785 44.4018 34.7189 44.0956 33.9871 44.242ZM34.7465 45.3073C35.9271 45.6269 35.9133 47.1981 34.7327 47.5044C34.0285 47.6908 33.2829 47.1249 33.2829 46.4125C33.2829 45.9398 33.5314 45.5803 34.0078 45.3672C34.3323 45.2207 34.4013 45.2207 34.7465 45.3073Z" fill="#3A3A3C"/>
<path d="M40.0624 44.2488C39.0268 44.4418 38.2535 45.3606 38.2535 46.4059C38.2535 47.2781 38.723 47.9905 39.5515 48.3833C39.945 48.5697 40.0762 48.603 40.5318 48.603C40.9875 48.603 41.1187 48.5697 41.5191 48.3833C42.0162 48.1436 42.3614 47.8107 42.6168 47.3114C42.7411 47.0651 42.7756 46.892 42.7756 46.4059C42.7756 45.8467 42.7618 45.7801 42.5409 45.3873C42.1888 44.7681 41.6779 44.3952 40.9599 44.2488C40.5526 44.1689 40.4835 44.1689 40.0624 44.2488ZM40.8218 45.3074C41.74 45.5537 42.0162 46.6722 41.2982 47.2581C40.5111 47.8973 39.3582 47.3713 39.3582 46.3726C39.3582 45.9199 39.6343 45.5471 40.1176 45.3473C40.4076 45.2275 40.4904 45.2208 40.8218 45.3074Z" fill="#3A3A3C"/>
<path d="M45.9927 44.2753C45.5026 44.4085 45.2333 44.5749 44.8536 44.9811C44.2668 45.6069 44.1149 46.5856 44.4877 47.318C44.8881 48.1103 45.6544 48.5963 46.4967 48.5963C47.2354 48.603 47.6566 48.4365 48.1675 47.9438C48.6646 47.4645 48.8441 47.045 48.8372 46.3726C48.8303 44.9811 47.3735 43.9092 45.9927 44.2753ZM47.2078 45.4471C47.7256 45.7534 47.9051 46.4924 47.5875 46.9851C46.8764 48.097 45.0814 47.3646 45.4335 46.1063C45.6406 45.3672 46.5243 45.041 47.2078 45.4471Z" fill="#3A3A3C"/>
</svg>
