<svg width="31" height="31" viewBox="0 0 31 31" fill="none" xmlns="http://www.w3.org/2000/svg">
<g clip-path="url(#clip0_1_419)">
<path d="M14.2285 0.108989C14.8219 0.405668 14.8764 1.24727 14.3193 1.61055C14.2346 1.66504 13.8228 1.78614 13.393 1.88301C12.0973 2.16758 11.4555 2.3795 10.293 2.90625C8.62792 3.66309 7.15058 4.71055 5.77616 6.12129C3.79023 8.16172 2.48847 10.6078 1.883 13.4475C1.71952 14.2164 1.67714 14.3133 1.44101 14.4889C1.05956 14.7674 0.59335 14.7432 0.284562 14.4223C0.0060463 14.1316 -0.0121183 13.9439 0.157413 13.1205C1.36835 7.1627 5.87909 2.23418 11.7158 0.490434C12.3818 0.290629 13.6654 3.8147e-06 13.8773 3.8147e-06C13.956 3.8147e-06 14.1135 0.0484419 14.2285 0.108989Z" fill="#3A3A3C"/>
<path d="M25.9201 1.93145C26.6951 2.1797 27.343 2.71856 29.1594 4.64395C30.4612 6.01837 30.8123 6.71465 30.9334 8.10118C31.109 10.075 30.443 12.5756 28.9717 15.4697C28.3541 16.6928 28.0756 17.1711 27.2885 18.3457C24.3217 22.7898 20.4285 26.3318 15.833 28.7779C13.2295 30.1645 11.0256 30.8729 9.02151 30.9758C7.60471 31.0545 6.34534 30.6549 5.4008 29.8375C5.28576 29.7406 4.58948 29.0443 3.8508 28.2815C2.62776 27.0281 2.4885 26.8586 2.25237 26.3924C1.79827 25.4842 1.79221 24.6668 2.24631 23.7344C2.49455 23.2318 2.5551 23.1652 4.7469 20.9734C6.87209 18.8422 7.0174 18.709 7.45334 18.5031C8.37971 18.0672 9.3303 18.1096 10.2324 18.6303C10.3838 18.7211 11.068 19.3447 11.7582 20.0289L13.0115 21.2641L13.611 20.9432C16.275 19.5385 19.7746 16.0147 21.0703 13.4354L21.3065 12.9752L20.144 11.8006C18.9028 10.5473 18.6 10.1719 18.4002 9.60274C18.1338 8.82774 18.1883 8.08907 18.5697 7.30801C18.7696 6.9084 18.9754 6.68438 21.034 4.62579C23.3772 2.28263 23.5649 2.1252 24.2793 1.91329C24.7153 1.78614 25.4903 1.79219 25.9201 1.93145ZM24.5639 3.69337C24.1885 3.86895 20.2711 7.8045 20.1076 8.17383C19.7928 8.87012 19.926 9.1002 21.585 10.7471C22.3297 11.4797 22.9776 12.1699 23.0381 12.285C23.2076 12.624 23.135 13.2356 22.8565 13.8289C22.0754 15.4879 20.816 17.159 18.8967 19.0723C17.3164 20.6525 15.6938 21.8695 14.053 22.7111C13.3688 23.0684 13.278 23.0986 12.9328 23.0926C12.6967 23.0926 12.4848 23.0502 12.3516 22.9836C12.2365 22.9231 11.5281 22.2631 10.7774 21.5244C10.0266 20.7857 9.32424 20.1318 9.2092 20.0713C8.90647 19.9199 8.37365 19.9684 8.07092 20.1803C7.64104 20.477 3.95979 24.2309 3.81448 24.5154C3.63889 24.8666 3.63889 25.2662 3.81448 25.6174C3.94768 25.8717 5.89729 27.9182 6.56936 28.4994C7.53811 29.3471 8.90041 29.45 11.1406 28.8445C12.7754 28.4025 15.3002 27.1795 17.377 25.8232C21.7969 22.9291 25.8414 18.2488 27.8879 13.6533C29.2018 10.6986 29.5227 8.43419 28.8324 7.02344C28.7114 6.76915 28.342 6.35743 27.2764 5.27969C26.3985 4.3836 25.7809 3.8084 25.6114 3.72364C25.2723 3.542 24.903 3.53594 24.5639 3.69337Z" fill="#3A3A3C"/>
<path d="M14.5192 5.75195C14.9309 6.00625 15.0762 6.55117 14.834 6.94473C14.6645 7.22324 14.5192 7.2959 13.7866 7.47754C12.1094 7.88926 10.7592 8.6582 9.61488 9.86309C8.53109 10.9953 7.79847 12.3637 7.47757 13.835C7.35042 14.4041 7.26566 14.5979 7.04769 14.7674C6.55726 15.1549 5.77015 14.8703 5.66117 14.2648C5.57035 13.8047 6.02445 12.2244 6.55121 11.177C7.9014 8.45234 10.3475 6.49062 13.2901 5.77617C14.0227 5.60058 14.2588 5.59453 14.5192 5.75195Z" fill="#3A3A3C"/>
</g>
<defs>
<clipPath id="clip0_1_419">
<rect width="31" height="31" fill="white" transform="matrix(-1 0 0 1 31 0)"/>
</clipPath>
</defs>
</svg>
