<svg width="38" height="38" viewBox="0 0 38 38" fill="none" xmlns="http://www.w3.org/2000/svg">
<g clip-path="url(#clip0_1_424)">
<path d="M11.645 0.764458C11.1328 0.979694 10.8508 1.17266 10.5391 1.53633C10.2793 1.82579 9.94534 2.47891 9.94534 2.68673C9.94534 2.80547 9.84886 2.82032 8.88402 2.82032C8.30511 2.82032 7.71878 2.85001 7.57777 2.89454C6.96917 3.06524 6.50902 3.60704 6.41995 4.23047L6.368 4.59415L4.09691 4.61641C1.91488 4.63868 1.80355 4.6461 1.51409 4.80196C1.12073 5.00977 0.771907 5.41797 0.668 5.7668C0.608625 5.96719 0.593782 10.4352 0.608625 21.1969L0.630891 36.3375L0.838703 36.6492C0.950032 36.8199 1.18011 37.05 1.35081 37.1613L1.66253 37.3691L12.4985 37.3914C20.1653 37.4062 23.4235 37.3914 23.6239 37.332C23.9801 37.2281 24.3809 36.8793 24.5887 36.4859C24.7446 36.1891 24.752 36.1 24.7743 33.4504L24.7965 30.7266H25.7465C28.6262 30.7266 31.9586 29.4129 35.2242 26.9859C36.3375 26.1621 36.8942 25.6203 37.1539 25.1082C37.3543 24.7148 37.3692 24.6109 37.3692 23.8984C37.3692 23.2156 37.3469 23.0672 37.1762 22.7109C37.0723 22.4883 36.8496 22.1543 36.6864 21.9688C36.4043 21.6496 36.3969 21.6273 36.486 21.4121C36.6121 21.1152 36.6121 20.3137 36.486 20.0094C36.3375 19.6605 35.8774 19.1707 35.5211 18.9777C35.0907 18.7551 34.2297 18.7551 33.8067 18.9777C32.352 19.7496 32.3742 21.7387 33.8364 22.4809C34.2668 22.7035 34.6676 22.7332 35.1871 22.607C35.7215 22.466 35.7586 22.4809 36.0778 23.0449C36.4785 23.7426 36.3301 24.6184 35.7289 25.1602C33.6657 27.023 30.1403 28.8934 27.6836 29.4277C26.8301 29.6133 25.2493 29.6578 24.5293 29.5094C22.8668 29.1754 21.7164 28.0621 21.3305 26.4367C21.1821 25.8207 21.1672 24.4551 21.2934 23.6387C21.6422 21.4641 23.0004 18.5324 24.7 16.291C25.7836 14.866 26.0657 14.6137 26.6965 14.5098C27.1196 14.443 27.7207 14.6285 28.077 14.9328L28.359 15.1777L28.2477 15.5043C27.9879 16.2168 28.1735 16.9738 28.7301 17.5305C29.8137 18.6141 31.6692 18.0426 31.9883 16.5285C32.2035 15.4746 31.5282 14.4727 30.4446 14.2426C30.0957 14.1758 29.9621 14.1758 29.591 14.2797L29.1532 14.4059L28.8637 14.1461C27.7875 13.1664 26.1844 13.1367 25.0934 14.0719L24.7891 14.3391V10.2645C24.7891 5.64805 24.7891 5.6629 24.2621 5.12852C23.7723 4.63868 23.5422 4.60157 21.0633 4.60157H18.9258V4.38633C18.9258 3.81485 18.5547 3.25079 18.0055 2.99844C17.6641 2.83516 17.5305 2.82032 16.5434 2.82032H15.4598L15.2965 2.375C15.0813 1.7961 14.4875 1.14297 13.9012 0.853519C13.5375 0.675396 13.3668 0.638287 12.7657 0.61602C12.1571 0.593754 12.0012 0.61602 11.645 0.764458ZM13.3075 1.80352C13.8938 2.05587 14.2797 2.5754 14.3688 3.25821C14.4578 3.91875 14.495 3.9336 16.1055 3.9336C17.8942 3.9336 17.8125 3.87422 17.8125 5.14336C17.8125 5.84844 17.7828 6.09336 17.6938 6.21954L17.5825 6.38282H12.6617C8.17152 6.38282 7.7262 6.37539 7.63714 6.25665C7.56292 6.175 7.52581 5.86329 7.51097 5.21758C7.49613 4.32696 7.49613 4.29727 7.67425 4.11914C7.8598 3.9336 7.87464 3.9336 9.22542 3.9336C10.8508 3.9336 10.8731 3.92618 10.9844 3.23594C11.0957 2.53829 11.4223 2.08555 12.0235 1.80352C12.2832 1.68477 13.018 1.68477 13.3075 1.80352ZM6.4348 6.16758C6.5387 6.70938 6.79847 7.07305 7.28089 7.34766L7.60745 7.53321H12.543C15.2594 7.53321 17.6047 7.50352 17.7606 7.47383C18.3321 7.35508 18.9184 6.60547 18.9258 5.98946V5.70743L21.1227 5.72969L23.3196 5.75196L23.4977 5.95977L23.6758 6.16758V10.9695V15.7641L23.134 16.5805C20.9223 19.9055 19.8239 23.2602 20.1059 25.8059C20.1578 26.2215 20.2469 26.7336 20.3063 26.9414L20.4176 27.3273L19.7793 27.9879C18.8442 28.9527 18.6067 29.643 18.8887 30.5336C19.052 31.0457 19.0743 31.016 17.9758 31.8398C16.6696 32.8195 15.0887 33.5469 13.6785 33.8141C12.7953 33.9773 11.3555 33.9254 10.7395 33.7102C9.57425 33.2871 8.73558 32.5672 8.268 31.5801C7.49612 29.9621 7.68167 27.7504 8.76527 25.5832C8.92855 25.2715 9.06956 25.0117 9.08441 25.0117C9.09925 25.0117 9.32933 25.123 9.59652 25.2641C11.1996 26.1027 13.2629 25.8207 14.5321 24.5813C16.5063 22.659 16.2391 19.4305 13.968 17.9387C13.2258 17.4488 12.7137 17.2781 11.8379 17.2336C10.9102 17.1891 10.4129 17.293 9.63363 17.6789C8.60941 18.191 7.88948 19.0445 7.4887 20.1875C7.23636 20.9223 7.2512 22.0281 7.51839 22.8074C7.62972 23.1266 7.83753 23.5645 7.97113 23.7797L8.22347 24.173L7.80042 25.0266C6.97659 26.6594 6.63519 28.1066 6.70198 29.6504C6.74652 30.7043 6.88753 31.298 7.28089 32.0996C8.19378 33.9773 10.0121 35.0238 12.3649 35.0312C14.636 35.0312 17.1594 34.0145 19.2895 32.2332C19.6532 31.9289 19.8907 31.7805 19.9649 31.8102C20.3285 31.9734 20.8555 32.0625 21.1524 32.0254C21.7313 31.9437 22.1098 31.7211 22.7778 31.0605C23.134 30.7117 23.4828 30.4297 23.5496 30.4297C23.6758 30.4297 23.6758 30.6227 23.661 33.2203L23.6387 36.0109L23.4606 36.152C23.2899 36.293 23.0153 36.293 12.6469 36.293C2.10042 36.293 2.00394 36.293 1.8555 36.1445C1.70706 35.9961 1.70706 35.8996 1.70706 21.0707C1.70706 10.6578 1.72933 6.10821 1.7887 6.0043C1.83323 5.92266 1.93714 5.82618 2.0262 5.78907C2.11527 5.75196 3.12464 5.72227 4.26761 5.72227L6.34573 5.71485L6.4348 6.16758ZM30.5633 15.482C30.7934 15.6305 30.9641 16.0535 30.9047 16.3133C30.8379 16.6027 30.5188 16.9145 30.2367 16.9664C29.4426 17.1148 28.9379 16.1203 29.5243 15.5711C29.836 15.2668 30.1922 15.2445 30.5633 15.482ZM12.9215 18.6141C13.8492 19.0594 14.5395 19.9797 14.7102 21.0188C14.9328 22.3695 14.1758 23.7426 12.8621 24.366C12.3946 24.5887 12.3055 24.6035 11.5782 24.6035C10.8582 24.5961 10.7618 24.5813 10.3016 24.366C8.98792 23.75 8.21605 22.3473 8.45355 20.9965C8.65394 19.8535 9.41839 18.9109 10.4871 18.5102C10.8805 18.3543 11.0512 18.332 11.6895 18.3543C12.3426 18.3766 12.491 18.4063 12.9215 18.6141ZM35.2762 20.1875C35.6696 20.6254 35.4692 21.3602 34.9125 21.516C34.3485 21.6719 33.8438 21.2859 33.8438 20.707C33.8438 19.9648 34.7789 19.6309 35.2762 20.1875ZM21.9094 29.4945L22.377 29.9176L21.9168 30.3555C21.6496 30.6078 21.3453 30.823 21.1895 30.8676C20.6922 31.0012 20.1207 30.7117 19.9649 30.2367C19.8164 29.784 19.9278 29.4945 20.4621 28.9379L20.952 28.4332L21.1969 28.7523C21.3305 28.9305 21.6496 29.2645 21.9094 29.4945Z" fill="#3A3A3C"/>
<path d="M3.79265 9.55195C3.71101 9.62617 3.61452 9.78945 3.59226 9.92305C3.55515 10.116 3.58483 10.1977 3.73327 10.3461L3.92624 10.5391H8.40905H12.8919L13.0477 10.3684C13.263 10.1383 13.2555 9.83398 13.0255 9.61133L12.8473 9.42578H8.40163C4.26765 9.42578 3.94108 9.4332 3.79265 9.55195Z" fill="#3A3A3C"/>
<path d="M3.73327 12.1422C3.58483 12.2906 3.55515 12.3723 3.59226 12.5652C3.68874 13.0625 2.97624 13.0254 12.6247 13.0477L21.3825 13.0625L21.5606 12.8844C21.7981 12.6469 21.8055 12.3277 21.5755 12.1125L21.4048 11.9492H12.6618H3.92624L3.73327 12.1422Z" fill="#3A3A3C"/>
<path d="M3.96328 14.4727C3.77031 14.5469 3.5625 14.8289 3.5625 14.9996C3.5625 15.0664 3.6293 15.2074 3.71836 15.3187L3.8668 15.5117H12.6617C21.3527 15.5117 21.4492 15.5117 21.5977 15.3633C21.8797 15.0812 21.7609 14.6211 21.3676 14.4801C21.0781 14.3836 4.2082 14.3687 3.96328 14.4727Z" fill="#3A3A3C"/>
<path d="M11.17 19.7348C9.79696 20.091 9.3368 21.709 10.3165 22.7184C10.5614 22.9781 10.7544 23.0969 11.0513 23.1859C11.5559 23.3344 11.6005 23.3344 12.1052 23.1859C12.402 23.0969 12.595 22.9781 12.8548 22.7109C13.7009 21.8352 13.4708 20.4473 12.3872 19.8906C12.0755 19.7273 11.4891 19.6531 11.17 19.7348ZM12.0829 21.0484C12.3056 21.3082 12.3056 21.6941 12.0606 21.9316C11.6599 22.3398 10.9102 22.0652 10.9102 21.5086C10.9102 20.8555 11.6524 20.566 12.0829 21.0484Z" fill="#3A3A3C"/>
</g>
<defs>
<clipPath id="clip0_1_424">
<rect width="38" height="38" fill="white"/>
</clipPath>
</defs>
</svg>
