<svg width="39" height="39" viewBox="0 0 39 39" fill="none" xmlns="http://www.w3.org/2000/svg">
<path d="M13.4442 2.45273C10.405 2.7955 7.48758 4.01425 5.28621 5.87285C1.38622 9.14824 -0.3048 14.3736 1.02821 19.0049C1.53094 20.7492 2.49832 22.4707 3.82371 24.0018L4.18934 24.4283L3.27528 28.016C2.77254 29.9889 2.36122 31.7104 2.36122 31.8322C2.36122 32.1217 2.69637 32.4035 2.97059 32.3502C3.07723 32.3273 5.18719 31.5047 7.65516 30.5221L12.1493 28.732L12.5302 29.09C16.0645 32.4721 21.2747 33.9955 26.2106 33.0967L26.8505 32.9748L31.4208 34.7725C33.9268 35.7551 36.0444 36.5625 36.1206 36.5625C36.3263 36.5625 36.6386 36.2197 36.6386 36.0064C36.6386 35.8998 36.2272 34.2164 35.7245 32.2588C34.8485 28.8234 34.818 28.6863 34.9475 28.5264C35.0161 28.435 35.2598 28.1379 35.4884 27.8713C38.1239 24.7711 39.0913 20.4369 38.0096 16.5902C36.6614 11.7762 32.5329 8.14277 27.079 6.9621C26.5153 6.84023 26.4315 6.79453 25.9364 6.36035C23.4761 4.18183 20.3225 2.81074 16.8948 2.44511C16.0264 2.34609 14.3126 2.35371 13.4442 2.45273ZM16.2321 3.58769C21.2747 3.98378 25.6546 6.54316 27.7798 10.3365C28.4425 11.5324 28.9376 13.0863 29.1052 14.5031C29.2194 15.4553 29.1585 17.1996 28.9833 18.0146C27.9169 23.1258 23.5598 26.9191 17.8165 27.757C16.7577 27.917 14.6097 27.917 13.5966 27.757C13.1776 27.6961 12.6139 27.6275 12.3397 27.6047L11.8446 27.5666L7.84559 29.1662C5.64422 30.0422 3.83895 30.7354 3.83133 30.7125C3.8161 30.682 4.18172 29.2043 4.63875 27.4295C5.31668 24.8016 5.46141 24.1693 5.40047 24.0018C5.35477 23.8951 5.15672 23.6285 4.95106 23.4228C3.96082 22.4098 2.87157 20.6121 2.36883 19.1801C1.89657 17.8166 1.68329 16.118 1.82801 14.7393C2.14793 11.5096 3.80848 8.47793 6.35262 6.4289C8.34071 4.82929 11.0448 3.80097 13.8022 3.58769C14.96 3.49628 15.1124 3.49628 16.2321 3.58769ZM29.7221 9.10254C32.5862 10.3594 34.9552 12.6293 36.1815 15.2725C36.8899 16.7883 37.2022 18.2279 37.1946 19.9189C37.1946 22.8744 36.1206 25.4795 33.9573 27.7799C33.6222 28.1379 33.5155 28.2979 33.5155 28.473C33.5155 28.6025 33.8811 30.1184 34.3229 31.8398C34.7647 33.5689 35.1075 34.9934 35.0923 35.0162C35.0542 35.0467 34.0868 34.6658 29.3641 32.7539L27.079 31.8246L26.0507 31.9922C22.8134 32.5102 19.6141 32.076 16.8796 30.743C16.1255 30.3773 14.9981 29.6766 14.4725 29.2576L14.2821 29.0977H15.6304C18.4639 29.0977 20.6577 28.5797 23.0038 27.3686C26.5763 25.5252 29.1737 22.3107 30.0116 18.7002C30.4839 16.6359 30.3925 14.3127 29.745 12.2637C29.4555 11.3648 28.8157 10.0394 28.2368 9.14824L27.7417 8.39414L28.3587 8.58457C28.7014 8.69121 29.3184 8.92734 29.7221 9.10254Z" fill="#3A3A3C"/>
<path d="M14.625 8.04376C13.749 8.27989 12.9873 8.92735 12.5531 9.80333C12.317 10.2908 12.3018 10.3594 12.3018 11.1592C12.3018 11.9438 12.317 12.0275 12.5455 12.515C13.0635 13.6119 14.0994 14.3203 15.2725 14.3813C16.3236 14.4346 17.1006 14.1299 17.8166 13.3682C18.5174 12.6293 18.8525 11.5858 18.6773 10.6641C18.3193 8.73693 16.4836 7.54864 14.625 8.04376ZM16.3236 9.35392C16.7121 9.52911 17.1463 9.95568 17.3367 10.3442C17.5348 10.7631 17.5652 11.5096 17.4053 11.9361C17.2225 12.416 16.7578 12.8959 16.2855 13.1016C14.6859 13.7871 13.0254 12.3094 13.5129 10.6412C13.8633 9.44532 15.1734 8.84357 16.3236 9.35392Z" fill="#3A3A3C"/>
<path d="M14.3811 15.3867C13.3833 15.5695 12.5758 15.8971 11.7684 16.4607C10.085 17.6262 9.06431 19.5609 9.06431 21.5947C9.06431 22.6535 8.33306 22.5469 15.4323 22.5469C19.1647 22.5469 21.5413 22.5164 21.625 22.4707C21.8688 22.3412 21.9602 21.9832 21.9069 21.3662C21.6555 18.5555 19.7969 16.3008 17.1157 15.5314C16.4987 15.3562 14.9752 15.2725 14.3811 15.3867ZM16.5291 16.6207C18.5629 17.0016 20.4063 18.9668 20.6196 20.9549L20.6653 21.4043H15.4323H10.2069L10.2526 21.0768C10.5801 18.7002 12.4159 16.8416 14.7543 16.5369C15.3028 16.4684 15.8512 16.4912 16.5291 16.6207Z" fill="#3A3A3C"/>
</svg>
