<svg width="228" height="71" viewBox="0 0 228 71" fill="none" xmlns="http://www.w3.org/2000/svg">
<path d="M2.50451 3.49358V6.63132H23.9629C42.1132 6.63132 45.4214 6.81062 44.7955 7.88641C44.4379 8.60361 37.8215 16.8514 30.2217 26.3543C22.6218 35.7675 12.8761 47.8702 8.5844 53.2492C2.50451 60.7798 0.716309 63.6486 0.716309 65.7106V68.4897H27.5394H54.3624V65.352V62.2142H32.904C21.1018 62.2142 11.4455 61.9453 11.4455 61.6763C11.4455 61.3177 21.2806 48.7667 33.351 33.7056C52.1271 10.2173 55.2565 5.91412 55.2565 3.31427V0.355827H28.8805H2.50451V3.49358Z" fill="#FE5D26"/>
<path d="M138.318 11.9208C132.596 13.8034 127.41 18.0169 124.996 22.7684C124.102 24.4717 121.241 32.6299 118.469 40.8777L113.552 55.8492L116.323 56.8353C117.843 57.2836 119.363 57.4629 119.721 57.1043C119.989 56.656 122.403 49.9323 124.996 42.0431C130.45 25.2786 131.702 22.9477 136.62 20.1685C140.911 17.748 148.511 17.479 152.535 19.541C158.346 22.5891 162.37 30.4783 161.207 36.4848C160.76 38.7261 152.803 63.828 151.193 68.1312C151.015 68.6691 152.266 69.476 153.965 70.0139L157.184 71L162.549 54.5044C166.036 43.5671 167.913 36.4848 167.913 33.7057C167.824 25.9061 162.459 17.479 154.949 13.6241C151.104 11.5622 142.074 10.6657 138.318 11.9208Z" fill="#FE5D26"/>
<path d="M76.8045 13.893C68.3106 15.5964 58.4755 24.8303 56.0614 33.2574C54.6308 38.4571 55.3461 49.3047 57.492 53.6976C60.0849 59.1662 67.5059 65.9796 72.6917 67.8622C82.1692 71.1793 92.9878 69.207 100.677 62.7522L103.538 60.242V64.3659V68.4898H107.204H110.87L110.512 51.6356C110.244 36.3952 109.976 34.4229 108.098 30.2093C102.912 18.5548 89.0537 11.3829 76.8045 13.893ZM91.6466 22.3201C104.79 28.8646 107.651 46.3463 97.2795 56.656C88.5173 65.4417 76.1787 65.2624 67.5953 56.2974C59.5484 47.691 59.7272 34.6918 68.0424 26.5337C74.9269 19.8099 83.5103 18.2859 91.6466 22.3201Z" fill="#FE5D26"/>
<path d="M193.842 13.7137C182.487 16.1342 172.831 27.0715 171.758 38.8156C170.685 50.0218 176.407 61.0488 185.885 66.2485C190.266 68.669 191.428 68.938 199.207 68.938C208.595 68.938 211.546 67.9518 216.91 62.8418L219.771 60.0626V64.2762V68.4897H223.437H227.103L226.745 50.739C226.477 33.078 226.477 33.078 223.884 28.3266C220.755 22.7683 216.91 19.1823 211.009 16.1342C206.36 13.8033 198.67 12.7275 193.842 13.7137ZM205.823 21.0649C210.383 22.32 216.642 28.2369 218.519 33.078C220.844 39.3535 220.039 48.5875 216.552 53.4285C212.261 59.5247 207.343 62.4832 200.727 62.9314C177.748 64.3658 169.702 32.0022 190.624 22.2304C195.541 19.8995 200.369 19.5409 205.823 21.0649Z" fill="#FE5D26"/>
<path d="M136.352 25.8164C133.848 28.6852 123.834 58.6282 125.444 58.6282C126.785 58.6282 127.321 57.3731 132.686 40.6983C134.921 33.5263 137.335 26.8025 138.05 25.6371C139.749 23.0373 138.766 23.1269 136.352 25.8164Z" fill="#FE5D26"/>
</svg>
