<svg width="138" height="44" viewBox="0 0 138 44" fill="none" xmlns="http://www.w3.org/2000/svg">
<path d="M1.64011 2.671V4.568H14.6301C25.6174 4.568 27.62 4.6764 27.2412 5.3268C27.0247 5.7604 23.0194 10.7468 18.4188 16.492C13.8182 22.183 7.91859 29.5 5.3206 32.752C1.64011 37.3048 0.557617 39.0392 0.557617 40.2858V41.966H16.7951H33.0325V40.069V38.172H20.0426C12.8981 38.172 7.0526 38.0094 7.0526 37.8468C7.0526 37.63 13.0063 30.042 20.3132 20.9364C31.6794 6.736 33.5738 4.1344 33.5738 2.5626V0.774002H17.6069H1.64011V2.671Z" fill="#ED1C24"/>
<path d="M83.8557 7.76578C80.3917 8.90398 77.2525 11.4514 75.7911 14.324C75.2499 15.3538 73.5179 20.286 71.84 25.2724L68.8632 34.3238L70.541 34.92C71.4612 35.191 72.3813 35.2994 72.5978 35.0826C72.7601 34.8116 74.2215 30.7466 75.7911 25.977C79.0928 15.8416 79.8505 14.4324 82.8274 12.7522C85.4254 11.2888 90.026 11.1262 92.4616 12.3728C95.9797 14.2156 98.4153 18.9852 97.7117 22.6166C97.4411 23.9716 92.624 39.1476 91.6497 41.7492C91.5415 42.0744 92.2992 42.5622 93.3276 42.8874L95.2761 43.4836L98.5236 33.5108C100.634 26.8984 101.771 22.6166 101.771 20.9364C101.717 16.221 98.4694 11.1262 93.923 8.79558C91.5956 7.54898 86.129 7.00698 83.8557 7.76578Z" fill="#ED1C24"/>
<path d="M46.6179 8.95818C41.476 9.98798 35.5223 15.5706 34.0609 20.6654C33.1949 23.809 33.6279 30.3672 34.9269 33.023C36.4965 36.3292 40.9889 40.4484 44.1281 41.5866C49.8653 43.592 56.4144 42.3996 61.0692 38.4972L62.8012 36.9796V39.4728V41.966H65.0203H67.2394L67.0229 31.7764C66.8605 22.5624 66.6982 21.37 65.5615 18.8226C62.4223 11.7766 54.033 7.44059 46.6179 8.95818ZM55.6026 14.053C63.5589 18.0096 65.2909 28.5786 59.0124 34.8116C53.7082 40.1232 46.239 40.0148 41.043 34.5948C36.1718 29.3916 36.28 21.5326 41.3136 16.6004C45.4812 12.5354 50.6772 11.614 55.6026 14.053Z" fill="#ED1C24"/>
<path d="M117.467 8.8498C110.593 10.3132 104.748 16.9256 104.098 24.0258C103.449 30.8008 106.913 37.4674 112.65 40.611C115.302 42.0744 116.006 42.237 120.715 42.237C126.398 42.237 128.184 41.6408 131.432 38.5514L133.164 36.8712V39.4186V41.966H135.383H137.602L137.385 31.2344C137.223 20.557 137.223 20.557 135.653 17.6844C133.759 14.324 131.432 12.156 127.859 10.3132C125.045 8.904 120.39 8.2536 117.467 8.8498ZM124.72 13.2942C127.48 14.053 131.269 17.6302 132.406 20.557C133.813 24.351 133.326 29.9336 131.215 32.8604C128.617 36.546 125.64 38.3346 121.635 38.6056C107.725 39.4728 102.854 19.9066 115.519 13.9988C118.496 12.5896 121.418 12.3728 124.72 13.2942Z" fill="#ED1C24"/>
<path d="M82.665 16.1668C81.1495 17.9012 75.0876 36.004 76.0618 36.004C76.8737 36.004 77.1984 35.2452 80.4459 25.164C81.799 20.828 83.2604 16.763 83.6934 16.0584C84.7218 14.4866 84.1264 14.5408 82.665 16.1668Z" fill="#ED1C24"/>
</svg>
