<svg width="25" height="27" viewBox="0 0 25 27" fill="none" xmlns="http://www.w3.org/2000/svg">
<g clip-path="url(#clip0_1_471)">
<path d="M2.73965 10.7984C2.6826 10.7984 2.62696 10.779 2.58057 10.7428C2.53419 10.7066 2.49939 10.6555 2.48109 10.5966C2.46278 10.5377 2.46189 10.474 2.47854 10.4145C2.49518 10.355 2.52853 10.3028 2.57388 10.265L5.16328 8.10012C5.22075 8.05221 5.29333 8.03113 5.36506 8.04154C5.43679 8.05195 5.50178 8.09299 5.54575 8.15564C5.58971 8.21828 5.60905 8.29739 5.5995 8.37557C5.58994 8.45375 5.55229 8.52459 5.49482 8.57251L2.89843 10.7352C2.85092 10.7751 2.79259 10.7965 2.73266 10.7962L2.73965 10.7984Z" fill="#ED1C24" stroke="#ED1C24" stroke-width="0.2"/>
<path d="M22.1526 23.9456H2.75155C2.71482 23.9465 2.67831 23.9394 2.64408 23.9249C2.60985 23.9104 2.57858 23.8887 2.55206 23.861C2.52553 23.8333 2.50428 23.8002 2.4895 23.7635C2.47473 23.7269 2.46672 23.6874 2.46594 23.6474V11.1499C2.47025 11.0707 2.50216 10.9963 2.55515 10.9418C2.60815 10.8874 2.67822 10.8571 2.75105 10.8571C2.82387 10.8571 2.89394 10.8874 2.94694 10.9418C2.99993 10.9963 3.03185 11.0707 3.03615 11.1499V23.3502H21.867V11.1499C21.8713 11.0707 21.9032 10.9963 21.9562 10.9418C22.0092 10.8874 22.0793 10.8571 22.1521 10.8571C22.2249 10.8571 22.295 10.8874 22.348 10.9418C22.401 10.9963 22.4329 11.0707 22.4372 11.1499V23.6474C22.4356 23.728 22.4048 23.8047 22.3514 23.8606C22.2981 23.9165 22.2266 23.9471 22.1526 23.9456Z" fill="#ED1C24" stroke="#ED1C24" stroke-width="0.2"/>
<path d="M12.4531 18.239C11.5865 18.2439 10.7431 17.9337 10.0564 17.3573L2.56683 10.9987C2.53788 10.9749 2.51371 10.9449 2.49583 10.9105C2.47796 10.8761 2.46675 10.8381 2.46291 10.7988C2.45907 10.7595 2.46268 10.7198 2.47352 10.6821C2.48435 10.6444 2.50218 10.6095 2.52589 10.5796C2.57572 10.5198 2.64415 10.4822 2.71793 10.4742C2.79172 10.4661 2.86561 10.4882 2.92533 10.5361L10.4149 16.8969C10.998 17.3828 11.7116 17.6461 12.4456 17.6461C13.1796 17.6461 13.8932 17.3828 14.4763 16.8969L21.9659 10.5361C22.0256 10.4882 22.0995 10.4661 22.1733 10.4742C22.2471 10.4822 22.3155 10.5198 22.3653 10.5796C22.389 10.6095 22.4069 10.6444 22.4177 10.6821C22.4285 10.7198 22.4321 10.7595 22.4283 10.7988C22.4245 10.8381 22.4133 10.8761 22.3954 10.9105C22.3775 10.9449 22.3533 10.9749 22.3244 10.9987L14.8348 17.3573C14.1522 17.9302 13.3146 18.2403 12.4531 18.239Z" fill="#ED1C24" stroke="#ED1C24" stroke-width="0.2"/>
<path d="M22.1657 23.9456C22.1046 23.9458 22.0451 23.9236 21.997 23.8825L14.8299 17.7437C14.8017 17.7196 14.7782 17.6896 14.7606 17.6555C14.743 17.6214 14.7318 17.5839 14.7275 17.5451C14.7233 17.5063 14.726 17.4669 14.7357 17.4293C14.7454 17.3917 14.7618 17.3565 14.784 17.3257C14.8061 17.295 14.8336 17.2693 14.8649 17.2502C14.8962 17.231 14.9306 17.2188 14.9662 17.2141C15.0018 17.2095 15.0379 17.2125 15.0724 17.2231C15.107 17.2337 15.1392 17.2515 15.1674 17.2757L22.3335 23.4134C22.3782 23.4515 22.4109 23.504 22.427 23.5633C22.443 23.6227 22.4417 23.6861 22.4231 23.7446C22.4045 23.8031 22.3696 23.8538 22.3233 23.8897C22.277 23.9255 22.2215 23.9447 22.1647 23.9445L22.1657 23.9456Z" fill="#ED1C24" stroke="#ED1C24" stroke-width="0.2"/>
<path d="M2.73957 23.9456C2.68276 23.9458 2.62733 23.9266 2.581 23.8908C2.53468 23.8549 2.49979 23.8042 2.4812 23.7457C2.46261 23.6872 2.46125 23.6238 2.47732 23.5644C2.49338 23.505 2.52607 23.4526 2.5708 23.4145L9.73685 17.2757C9.79379 17.2269 9.86619 17.2048 9.9381 17.2142C10.01 17.2235 10.0756 17.2637 10.1203 17.3257C10.1651 17.3878 10.1854 17.4667 10.1768 17.5451C10.1682 17.6235 10.1313 17.6949 10.0744 17.7437L2.90834 23.8836C2.86004 23.9243 2.80061 23.9461 2.73957 23.9456Z" fill="#ED1C24" stroke="#ED1C24" stroke-width="0.2"/>
<path d="M22.1656 10.7984C22.1057 10.7987 22.0474 10.7773 21.9998 10.7374L19.4034 8.5747C19.375 8.55098 19.3511 8.52137 19.3331 8.48758C19.3152 8.45379 19.3035 8.41647 19.2988 8.37776C19.294 8.33905 19.2964 8.29971 19.3056 8.26197C19.3148 8.22424 19.3308 8.18885 19.3525 8.15783C19.3743 8.12681 19.4015 8.10078 19.4325 8.0812C19.4635 8.06162 19.4977 8.04889 19.5332 8.04374C19.5687 8.03858 19.6048 8.04111 19.6394 8.05116C19.6741 8.06121 19.7065 8.0786 19.735 8.10232L22.3314 10.265C22.3767 10.3028 22.4101 10.3551 22.4267 10.4145C22.4434 10.474 22.4425 10.5377 22.4242 10.5966C22.4059 10.6555 22.3711 10.7066 22.3247 10.7428C22.2783 10.779 22.2227 10.7985 22.1656 10.7984Z" fill="#ED1C24" stroke="#ED1C24" stroke-width="0.2"/>
<path d="M14.9506 4.85443C14.8907 4.85451 14.8324 4.83309 14.7848 4.79347L12.452 2.84844L10.1183 4.78803C10.0608 4.83595 9.98824 4.85702 9.91651 4.84661C9.84478 4.8362 9.77979 4.79516 9.73582 4.73252C9.69186 4.66988 9.67252 4.59077 9.68208 4.51259C9.69163 4.43441 9.72928 4.36357 9.78675 4.31565L12.2833 2.23239C12.3309 2.19267 12.3891 2.17114 12.4491 2.17114C12.509 2.17114 12.5672 2.19267 12.6148 2.23239L15.1114 4.31565C15.1567 4.35338 15.19 4.40567 15.2067 4.46514C15.2233 4.52462 15.2224 4.58829 15.2041 4.64718C15.1858 4.70608 15.151 4.75723 15.1047 4.79343C15.0583 4.82963 15.0026 4.84906 14.9456 4.84898L14.9506 4.85443Z" fill="#ED1C24" stroke="#ED1C24" stroke-width="0.2"/>
<path d="M19.5553 12.8076C19.4808 12.81 19.4084 12.78 19.3541 12.7243C19.2998 12.6686 19.268 12.5917 19.2657 12.5105V4.85441H5.64062V12.5105C5.63628 12.5911 5.60382 12.6669 5.54989 12.7223C5.49597 12.7778 5.42464 12.8086 5.35052 12.8086C5.2764 12.8086 5.20508 12.7778 5.15115 12.7223C5.09722 12.6669 5.06477 12.5911 5.06042 12.5105V4.55618C5.06277 4.47496 5.09458 4.39806 5.14887 4.34236C5.20316 4.28666 5.27549 4.25669 5.35002 4.25904H19.5553C19.6298 4.25669 19.7022 4.28666 19.7564 4.34236C19.8107 4.39806 19.8425 4.47496 19.8449 4.55618V12.5105C19.8425 12.5917 19.8107 12.6686 19.7564 12.7243C19.7022 12.78 19.6298 12.81 19.5553 12.8076Z" fill="#ED1C24" stroke="#ED1C24" stroke-width="0.2"/>
<path d="M16.6833 7.59843H8.22002C8.14758 7.59843 8.07812 7.56706 8.0269 7.51124C7.97567 7.45541 7.9469 7.37969 7.9469 7.30074C7.9469 7.22179 7.97567 7.14607 8.0269 7.09024C8.07812 7.03442 8.14758 7.00305 8.22002 7.00305H16.6833C16.7557 7.00305 16.8252 7.03442 16.8764 7.09024C16.9276 7.14607 16.9564 7.22179 16.9564 7.30074C16.9564 7.37969 16.9276 7.45541 16.8764 7.51124C16.8252 7.56706 16.7557 7.59843 16.6833 7.59843Z" fill="#ED1C24" stroke="#ED1C24" stroke-width="0.2"/>
<path d="M16.6833 10.0147H8.22002C8.14758 10.0147 8.07812 9.98332 8.0269 9.9275C7.97567 9.87167 7.9469 9.79595 7.9469 9.717C7.9469 9.63805 7.97567 9.56233 8.0269 9.5065C8.07812 9.45068 8.14758 9.41931 8.22002 9.41931H16.6833C16.7557 9.41931 16.8252 9.45068 16.8764 9.5065C16.9276 9.56233 16.9564 9.63805 16.9564 9.717C16.9564 9.79595 16.9276 9.87167 16.8764 9.9275C16.8252 9.98332 16.7557 10.0147 16.6833 10.0147Z" fill="#ED1C24" stroke="#ED1C24" stroke-width="0.2"/>
<path d="M16.6833 12.4245H8.22002C8.14758 12.4245 8.07812 12.3931 8.0269 12.3373C7.97567 12.2815 7.9469 12.2057 7.9469 12.1268C7.9469 12.0478 7.97567 11.9721 8.0269 11.9163C8.07812 11.8605 8.14758 11.8291 8.22002 11.8291H16.6833C16.7557 11.8291 16.8252 11.8605 16.8764 11.9163C16.9276 11.9721 16.9564 12.0478 16.9564 12.1268C16.9564 12.2057 16.9276 12.2815 16.8764 12.3373C16.8252 12.3931 16.7557 12.4245 16.6833 12.4245Z" fill="#ED1C24" stroke="#ED1C24" stroke-width="0.2"/>
</g>
<defs>
<clipPath id="clip0_1_471">
<rect width="23.9667" height="26.1224" fill="white" transform="translate(0.46875)"/>
</clipPath>
</defs>
</svg>
