<svg width="25" height="24" viewBox="0 0 25 24" fill="none" xmlns="http://www.w3.org/2000/svg">
<g clip-path="url(#clip0_1_491)">
<path d="M11.9557 2.00003C9.98482 1.98751 8.08949 2.7583 6.68542 4.14332C5.28136 5.52834 4.48321 7.41449 4.46606 9.38803C4.51107 10.3658 4.72599 11.3282 5.10118 12.232C5.34842 12.7868 5.63787 13.3217 5.96698 13.832L11.1018 21.5C11.188 21.6505 11.3122 21.7754 11.4621 21.8624C11.6119 21.9493 11.782 21.9951 11.9552 21.9951C12.1283 21.9951 12.2984 21.9493 12.4482 21.8624C12.5981 21.7754 12.7223 21.6505 12.8085 21.5L17.9443 13.824C18.2736 13.3138 18.5631 12.7789 18.8101 12.224C19.1854 11.3202 19.4003 10.3578 19.4453 9.38003C19.426 7.40788 18.6269 5.52378 17.2231 4.14048C15.8193 2.75719 13.9251 1.9875 11.9557 2.00003ZM17.9983 11.9C17.7727 12.4048 17.509 12.8915 17.2094 13.356L12.0755 21.027C11.9756 21.179 11.9417 21.179 11.8408 21.027L6.70296 13.351C6.40338 12.8865 6.13965 12.3998 5.91405 11.895C5.58534 11.0974 5.3939 10.2497 5.34784 9.38803C5.36921 7.64705 6.07485 5.98463 7.31183 4.76107C8.54881 3.53751 10.2175 2.85138 11.9562 2.85138C13.6949 2.85138 15.3635 3.53751 16.6005 4.76107C17.8375 5.98463 18.5431 7.64705 18.5645 9.38803C18.5189 10.2514 18.3274 11.1008 17.9983 11.9Z" fill="#ED1C24"/>
<path d="M11.9557 5.39201C11.1461 5.35708 10.3446 5.56557 9.65439 5.99065C8.96415 6.41574 8.41676 7.03796 8.08266 7.77722C7.74856 8.51649 7.64305 9.33896 7.7797 10.1388C7.91636 10.9386 8.28894 11.6792 8.84947 12.2652C9.41 12.8511 10.1328 13.2557 10.9249 13.4268C11.717 13.598 12.5421 13.5277 13.2941 13.2253C14.046 12.9228 14.6903 12.4019 15.1441 11.7296C15.5979 11.0574 15.8403 10.2645 15.8403 9.45301C15.8612 8.39914 15.4641 7.37995 14.7359 6.61874C14.0078 5.85754 13.008 5.41642 11.9557 5.39201ZM11.9557 12.612C11.3261 12.6384 10.703 12.4755 10.1666 12.1443C9.63026 11.8131 9.2051 11.3288 8.94585 10.7536C8.68661 10.1785 8.60514 9.53883 8.71192 8.91694C8.8187 8.29505 9.10885 7.71938 9.54505 7.26398C9.98125 6.80858 10.5435 6.49429 11.1596 6.36154C11.7756 6.22878 12.4172 6.28364 13.0019 6.51906C13.5865 6.75447 14.0875 7.15967 14.4403 7.68253C14.793 8.20539 14.9815 8.82199 14.9815 9.45301C14.9973 10.2734 14.6877 11.0665 14.1205 11.6587C13.5533 12.2508 12.7748 12.5936 11.9557 12.612Z" fill="#ED1C24"/>
</g>
<defs>
<clipPath id="clip0_1_491">
<rect width="23.9667" height="24" fill="white" transform="translate(0.471558)"/>
</clipPath>
</defs>
</svg>
