<svg width="21" height="20" viewBox="0 0 21 20" fill="none" xmlns="http://www.w3.org/2000/svg">
<path d="M7.13634 15.9539C4.81494 14.0136 2.93252 11.5969 1.61511 8.8655C0.981636 7.6303 0.585928 6.28584 0.448811 4.90287C0.448811 4.80252 0.440828 4.71522 0.440828 4.61989C0.426548 4.14108 0.516581 3.66492 0.704611 3.2248C0.892643 2.78468 1.17412 2.39126 1.52931 2.07213C1.5354 2.06541 1.54246 2.05966 1.55026 2.05507C1.84045 1.80266 2.11688 1.53468 2.37835 1.25231C2.56491 1.05663 2.75946 0.856947 2.95801 0.665288C3.14573 0.455234 3.37543 0.2874 3.63207 0.172758C3.88872 0.0581161 4.16653 -0.000750493 4.44735 7.22287e-06C4.72816 0.000764938 5.00566 0.0611299 5.26169 0.177155C5.51772 0.29318 5.74652 0.462252 5.93312 0.673316L8.42037 3.17492C8.62594 3.3599 8.79153 3.5854 8.90686 3.83741C9.02219 4.08943 9.08481 4.3626 9.09081 4.63996C9.08368 4.91923 9.02104 5.19424 8.90658 5.44878C8.79212 5.70333 8.62816 5.93225 8.42436 6.12206L6.94279 7.61219C7.0216 7.74966 7.09144 7.89114 7.15829 8.0246C7.23336 8.18125 7.31627 8.33397 7.40671 8.48218C8.33292 9.91541 9.48465 11.1877 10.8168 12.2491C11.431 12.7615 12.1101 13.1897 12.8361 13.5225C13.1883 13.1312 13.5565 12.7649 13.9166 12.4117C14.0454 12.2873 14.1731 12.1578 14.3018 12.0284C14.492 11.8194 14.7216 11.6507 14.9774 11.532C15.2331 11.4133 15.5098 11.347 15.7913 11.337C16.0726 11.3462 16.3491 11.4121 16.6046 11.5307C16.8601 11.6493 17.0894 11.8181 17.2789 12.0274L18.516 13.2646C18.6607 13.4101 18.8013 13.5476 18.946 13.6891C19.2274 13.964 19.5167 14.251 19.7781 14.534C19.9747 14.724 20.1319 14.9513 20.2407 15.2027C20.3494 15.4542 20.4075 15.7248 20.4116 15.999C20.399 16.5585 20.1687 17.0907 19.7701 17.4811L18.2227 19.0375C17.6818 19.5938 16.9579 19.9327 16.1864 19.9908C15.0539 20.0466 13.9233 19.8488 12.8761 19.4118C10.7768 18.6049 8.83429 17.4346 7.13634 15.9539ZM16.0996 18.9753C16.6332 18.9349 17.1337 18.6993 17.5063 18.313L19.0458 16.7647C19.2578 16.5653 19.3842 16.2906 19.398 15.999C19.3911 15.8562 19.3557 15.7161 19.2938 15.5873C19.2319 15.4585 19.1449 15.3436 19.0378 15.2495C18.7814 14.9705 18.512 14.7086 18.2267 14.4256C18.082 14.2841 17.9373 14.1386 17.7877 13.9931L16.5545 12.7529C16.4577 12.6393 16.3394 12.5463 16.2065 12.4791C16.0736 12.4119 15.9287 12.372 15.7803 12.3615C15.632 12.372 15.4871 12.4119 15.3542 12.4791C15.2213 12.5463 15.103 12.6393 15.0061 12.7529C14.8774 12.8823 14.7457 13.0108 14.617 13.1402C14.2279 13.5275 13.8598 13.8898 13.5076 14.2892L13.4866 14.3102C13.3742 14.437 13.2251 14.5252 13.0604 14.5624C12.8956 14.5996 12.7233 14.5841 12.5678 14.5179C12.5558 14.5179 12.5468 14.5099 12.5348 14.5059C11.6821 14.1347 10.8865 13.6427 10.1723 13.0449C8.75089 11.9159 7.52337 10.56 6.53872 9.03106C6.42943 8.85318 6.32952 8.66963 6.23941 8.48117C6.16434 8.32453 6.08143 8.17181 5.99099 8.0236L5.96604 7.97744C5.90118 7.85366 5.86696 7.71598 5.86627 7.57606C5.86998 7.4591 5.89676 7.34405 5.94506 7.23759C5.99336 7.13113 6.06221 7.03539 6.14762 6.95593L7.69504 5.39757C7.80324 5.30124 7.89145 5.18438 7.95463 5.05368C8.01781 4.92298 8.0547 4.78102 8.06319 4.63595C8.05466 4.49449 8.01762 4.35626 7.95433 4.22965C7.89105 4.10303 7.80283 3.99068 7.69504 3.89941L5.20082 1.39078C5.10647 1.27358 4.98708 1.17927 4.8515 1.11486C4.71593 1.05045 4.56767 1.01761 4.41774 1.01876C4.26781 1.01992 4.12006 1.05505 3.98549 1.12154C3.85091 1.18803 3.73297 1.28418 3.64043 1.40283C3.45386 1.57743 3.27627 1.76106 3.0897 1.95673C2.80569 2.26229 2.50597 2.55268 2.19178 2.82672C1.94374 3.05051 1.74768 3.32643 1.61751 3.63493C1.48733 3.94343 1.42623 4.27696 1.43852 4.61186C1.43852 4.68311 1.43852 4.75736 1.4465 4.82861C1.57648 6.08115 1.94 7.29783 2.51802 8.41495C3.77108 11.0155 5.56319 13.3162 7.77386 15.1622C9.38505 16.5661 11.2261 17.6784 13.2153 18.4495C14.1261 18.8375 15.1113 19.0171 16.0996 18.9753Z" fill="#ED1C24"/>
</svg>
